<?xml version="1.0" encoding="UTF-8" standalone="no"?>
<!--
  #%L
  STRep
  %%
  Copyright (C) 2019 - 2024 SING Group (University of Vigo)
  %%
  This program is free software: you can redistribute it and/or modify
  it under the terms of the GNU General Public License as
  published by the Free Software Foundation, either version 3 of the
  License, or (at your option) any later version.
  
  This program is distributed in the hope that it will be useful,
  but WITHOUT ANY WARRANTY; without even the implied warranty of
  MERCHANTABILITY or FITNESS FOR A PARTICULAR PURPOSE.  See the
  GNU General Public License for more details.
  
  You should have received a copy of the GNU General Public
  License along with this program.  If not, see
  <http://www.gnu.org/licenses/gpl-3.0.html>.
  #L%
  -->

<svg
   xmlns:dc="http://purl.org/dc/elements/1.1/"
   xmlns:cc="http://creativecommons.org/ns#"
   xmlns:rdf="http://www.w3.org/1999/02/22-rdf-syntax-ns#"
   xmlns:svg="http://www.w3.org/2000/svg"
   xmlns="http://www.w3.org/2000/svg"
   xmlns:sodipodi="http://sodipodi.sourceforge.net/DTD/sodipodi-0.dtd"
   xmlns:inkscape="http://www.inkscape.org/namespaces/inkscape"
   version="1.1"
   x="0px"
   y="0px"
   viewBox="0 0 90 90"
   xml:space="preserve"
   id="svg10"
   sodipodi:docname="noun_profile_1325999.white.svg"
   width="90"
   height="90"
   inkscape:version="0.92.3 (2405546, 2018-03-11)"><metadata
     id="metadata16"><rdf:RDF><cc:Work
         rdf:about=""><dc:format>image/svg+xml</dc:format><dc:type
           rdf:resource="http://purl.org/dc/dcmitype/StillImage" /><dc:title /></cc:Work></rdf:RDF></metadata><defs
     id="defs14" /><sodipodi:namedview
     pagecolor="#ffffff"
     bordercolor="#666666"
     borderopacity="1"
     objecttolerance="10"
     gridtolerance="10"
     guidetolerance="10"
     inkscape:pageopacity="0"
     inkscape:pageshadow="2"
     inkscape:window-width="1153"
     inkscape:window-height="916"
     id="namedview12"
     showgrid="false"
     inkscape:zoom="2.6700352"
     inkscape:cx="0.89809474"
     inkscape:cy="-6.6551523"
     inkscape:window-x="542"
     inkscape:window-y="259"
     inkscape:window-maximized="0"
     inkscape:current-layer="svg10" /><rect
     style="opacity:1;vector-effect:none;fill:#203939;fill-opacity:1;stroke:none;stroke-width:15.04044151;stroke-linecap:square;stroke-linejoin:miter;stroke-miterlimit:4;stroke-dasharray:none;stroke-dashoffset:0;stroke-opacity:1;paint-order:normal"
     id="rect4529"
     width="70"
     height="70"
     x="10"
     y="10" /><g
     id="g4"
     transform="translate(-5,-5)"><path
       d="M 72.6,5 H 27.4 C 15,5 5,15 5,27.4 V 72.6 C 5,85 15,95 27.4,95 H 72.6 C 85,95 95,85 95,72.6 V 27.4 C 95,15 85,5 72.6,5 Z m 3.1,67.6 C 75.6,73.4 75,74 74.2,74 H 25.8 c -0.8,0 -1.4,-0.6 -1.5,-1.4 0,-0.3 -0.8,-8.5 4.6,-11.2 1.2,-0.6 2.8,-1.1 4.5,-1.6 3.8,-1.2 8.5,-2.7 9.3,-5.5 0,-0.4 -0.3,-1.8 -1.3,-2.8 -2,-2 -4.3,-7.7 -4.3,-13.3 0,0 0,-0.1 0,-0.1 0,-0.3 0.6,-8.2 5.1,-11.5 0.6,-0.5 3.1,-2.6 7.7,-2.6 0,0 0.1,0 0.1,0 4.6,0 7.2,2.1 7.7,2.6 4.5,3.3 5.1,11.2 5.1,11.5 0,0 0,0.1 0,0.1 0,5.6 -2.2,11.3 -4.3,13.3 -1,1 -1.2,2.4 -1.3,2.8 0.8,2.8 5.5,4.3 9.3,5.5 1.7,0.5 3.3,1 4.5,1.6 0,0 0,0 0,0 5.5,2.7 4.8,10.9 4.7,11.2 z"
       id="path2"
       style="fill:#ffffff"
       inkscape:connector-curvature="0" /></g><rect
     style="opacity:0;vector-effect:none;fill:#000000;fill-opacity:1;stroke:none;stroke-width:16.71032715;stroke-linecap:square;stroke-linejoin:miter;stroke-miterlimit:4;stroke-dasharray:none;stroke-dashoffset:0;stroke-opacity:1;paint-order:normal"
     id="rect3722"
     width="116.85239"
     height="91.759087"
     x="11.85371"
     y="102.77176" /></svg>
