<?xml version="1.0" encoding="iso-8859-1"?>
<!-- Generator: Adobe Illustrator 16.0.0, SVG Export Plug-In . SVG Version: 6.00 Build 0)  -->
<!DOCTYPE svg PUBLIC "-//W3C//DTD SVG 1.1//EN" "http://www.w3.org/Graphics/SVG/1.1/DTD/svg11.dtd">
<svg xmlns="http://www.w3.org/2000/svg" xmlns:xlink="http://www.w3.org/1999/xlink" version="1.1" id="Capa_1" x="0px" y="0px" width="512px" height="512px" viewBox="0 0 123.975 123.975" style="enable-background:new 0 0 123.975 123.975;" xml:space="preserve">
<g>
	<path d="M62.087,0C62.087,0,61.987,0,62.087,0c-0.1,0-0.2,0-0.2,0c-22.4,0-40.6,7.1-41.9,15c0,0.1,0,0.2,0,0.4   c0,1.9,0.1,18.5,0.1,22.7c0,0.6,0.2,1.1,0.7,1.5c4.6,3.9,18.5,9.4,41.2,9.4l0,0l0,0c22.6,0,36.6-5.5,41.2-9.4   c0.399-0.4,0.7-1.1,0.7-1.7c0-4.2,0-22.7,0-22.9C102.688,7.1,84.487,0,62.087,0z M61.987,25L61.987,25L61.987,25   c-15.7,0-28.4-3.7-28.4-8.5s12.7-8.5,28.3-8.5l0,0l0,0c15.7,0,28.3,3.7,28.3,8.5C90.388,21.3,77.688,25,61.987,25z" fill="#203939"/>
	<path d="M19.987,105.7c0,1.8,0.1,3.7,1,5.3c0.5,1,1.2,1.8,2,2.6c7.4,7.101,20.4,9.2,30.1,10c5.8,0.5,11.9,0.5,17.8,0   c9.8-0.8,22.8-2.8,30.1-10c0.8-0.8,1.5-1.6,2-2.6c0.9-1.6,1-3.5,1-5.3c0-0.601,0-7.3,0-11.4c0-1.399-1.5-2.399-2.8-1.8   c-10.7,4.4-25,6.5-39.2,6.5l0,0l0,0c-14.2,0-28.5-2.1-39.2-6.5c-1.3-0.5-2.8,0.4-2.8,1.8C19.987,98.4,19.987,105.1,19.987,105.7z" fill="#203939"/>
	<path d="M61.987,85L61.987,85L61.987,85c22.8,0,36.8-5.8,41.3-9.7c0.4-0.399,0.7-0.899,0.7-1.5c0-2.7,0-10.899,0-15.5   c0-1.4-1.5-2.4-2.8-1.8c-10.7,4.4-25,6.5-39.2,6.5l0,0l0,0c-14.2,0-28.4-2.1-39.1-6.5c-1.3-0.5-2.8,0.4-2.8,1.8   c0,4.5,0,12.8,0,15.5c0,0.601,0.2,1.101,0.7,1.5C25.287,79.2,39.188,85,61.987,85z" fill="#203939"/>
</g>
<g>
</g>
<g>
</g>
<g>
</g>
<g>
</g>
<g>
</g>
<g>
</g>
<g>
</g>
<g>
</g>
<g>
</g>
<g>
</g>
<g>
</g>
<g>
</g>
<g>
</g>
<g>
</g>
<g>
</g>
</svg>
