<?xml version="1.0" encoding="UTF-8" standalone="no"?>
<!-- Generator: Adobe Illustrator 19.0.0, SVG Export Plug-In . SVG Version: 6.00 Build 0)  -->

<svg
   xmlns:dc="http://purl.org/dc/elements/1.1/"
   xmlns:cc="http://creativecommons.org/ns#"
   xmlns:rdf="http://www.w3.org/1999/02/22-rdf-syntax-ns#"
   xmlns:svg="http://www.w3.org/2000/svg"
   xmlns="http://www.w3.org/2000/svg"
   xmlns:sodipodi="http://sodipodi.sourceforge.net/DTD/sodipodi-0.dtd"
   xmlns:inkscape="http://www.inkscape.org/namespaces/inkscape"
   version="1.1"
   id="Layer_1"
   x="0px"
   y="0px"
   viewBox="0 0 443 443"
   style="enable-background:new 0 0 443 443;"
   xml:space="preserve"
   sodipodi:docname="delete.svg"
   inkscape:version="0.92.4 (unknown)"><metadata
   id="metadata45"><rdf:RDF><cc:Work
       rdf:about=""><dc:format>image/svg+xml</dc:format><dc:type
         rdf:resource="http://purl.org/dc/dcmitype/StillImage" /></cc:Work></rdf:RDF></metadata><defs
   id="defs43" /><sodipodi:namedview
   pagecolor="#ffffff"
   bordercolor="#666666"
   borderopacity="1"
   objecttolerance="10"
   gridtolerance="10"
   guidetolerance="10"
   inkscape:pageopacity="0"
   inkscape:pageshadow="2"
   inkscape:window-width="1920"
   inkscape:window-height="1015"
   id="namedview41"
   showgrid="false"
   inkscape:zoom="0.53273138"
   inkscape:cx="237.45551"
   inkscape:cy="221.5"
   inkscape:window-x="0"
   inkscape:window-y="0"
   inkscape:window-maximized="1"
   inkscape:current-layer="g8" />
<g
   id="g8">
	<path
   d="M 321.785,38 H 238.401 V 0 H 125.169 V 38 H 41.785 v 60 h 280 V 38 Z M 155.169,30 h 53.232 v 8 h -53.232 z"
   id="path2"
   inkscape:connector-curvature="0"
   style="fill:#203939;fill-opacity:1" />
	<path
   d="M 295.142,214.31 300.802,128 H 62.769 l 19.016,290 h 114.172 c -14.861,-21.067 -23.602,-46.746 -23.602,-74.43 0,-69.14 54.494,-125.791 122.787,-129.26 z"
   id="path4"
   inkscape:connector-curvature="0"
   style="fill:#203939;fill-opacity:1" />
	<path
   d="m 301.785,244.141 c -54.826,0 -99.43,44.604 -99.43,99.429 0,54.825 44.604,99.43 99.43,99.43 54.826,0 99.43,-44.604 99.43,-99.43 0,-54.826 -44.604,-99.429 -99.43,-99.429 z m 54.176,132.392 -21.213,21.213 -32.963,-32.963 -32.963,32.963 -21.213,-21.213 32.963,-32.963 -32.963,-32.963 21.213,-21.213 32.963,32.963 32.963,-32.963 21.213,21.213 -32.963,32.963 z"
   id="path6"
   style="fill:#98182f;fill-opacity:0.94117647"
   inkscape:connector-curvature="0" />
</g>
<g
   id="g10">
</g>
<g
   id="g12">
</g>
<g
   id="g14">
</g>
<g
   id="g16">
</g>
<g
   id="g18">
</g>
<g
   id="g20">
</g>
<g
   id="g22">
</g>
<g
   id="g24">
</g>
<g
   id="g26">
</g>
<g
   id="g28">
</g>
<g
   id="g30">
</g>
<g
   id="g32">
</g>
<g
   id="g34">
</g>
<g
   id="g36">
</g>
<g
   id="g38">
</g>
</svg>