<?xml version="1.0" encoding="UTF-8" standalone="no"?>
<!--
  #%L
  STRep
  %%
  Copyright (C) 2019 - 2024 SING Group (University of Vigo)
  %%
  This program is free software: you can redistribute it and/or modify
  it under the terms of the GNU General Public License as
  published by the Free Software Foundation, either version 3 of the
  License, or (at your option) any later version.
  
  This program is distributed in the hope that it will be useful,
  but WITHOUT ANY WARRANTY; without even the implied warranty of
  MERCHANTABILITY or FITNESS FOR A PARTICULAR PURPOSE.  See the
  GNU General Public License for more details.
  
  You should have received a copy of the GNU General Public
  License along with this program.  If not, see
  <http://www.gnu.org/licenses/gpl-3.0.html>.
  #L%
  -->

<!-- Generator: Adobe Illustrator 19.1.0, SVG Export Plug-In . SVG Version: 6.00 Build 0)  -->

<svg
   xmlns:dc="http://purl.org/dc/elements/1.1/"
   xmlns:cc="http://creativecommons.org/ns#"
   xmlns:rdf="http://www.w3.org/1999/02/22-rdf-syntax-ns#"
   xmlns:svg="http://www.w3.org/2000/svg"
   xmlns="http://www.w3.org/2000/svg"
   xmlns:sodipodi="http://sodipodi.sourceforge.net/DTD/sodipodi-0.dtd"
   xmlns:inkscape="http://www.inkscape.org/namespaces/inkscape"
   version="1.1"
   id="Capa_1"
   x="0px"
   y="0px"
   viewBox="0 0 491.858 491.858"
   style="enable-background:new 0 0 491.858 491.858;"
   xml:space="preserve"
   sodipodi:docname="internet.svg"
   inkscape:version="0.92.4 (unknown)"><metadata
   id="metadata83"><rdf:RDF><cc:Work
       rdf:about=""><dc:format>image/svg+xml</dc:format><dc:type
         rdf:resource="http://purl.org/dc/dcmitype/StillImage" /><dc:title></dc:title></cc:Work></rdf:RDF></metadata><defs
   id="defs81" /><sodipodi:namedview
   pagecolor="#ffffff"
   bordercolor="#666666"
   borderopacity="1"
   objecttolerance="10"
   gridtolerance="10"
   guidetolerance="10"
   inkscape:pageopacity="0"
   inkscape:pageshadow="2"
   inkscape:window-width="1920"
   inkscape:window-height="1015"
   id="namedview79"
   showgrid="false"
   inkscape:zoom="0.47981328"
   inkscape:cx="261.56008"
   inkscape:cy="245.929"
   inkscape:window-x="0"
   inkscape:window-y="0"
   inkscape:window-maximized="1"
   inkscape:current-layer="g12" />
<g
   id="g46"
   inkscape:label="g46">
	<g
   id="g14">
		<g
   id="g12">
			<path
   d="M 245.929,0.001 C 110.106,0.001 0,110.106 0,245.929 c 0,135.823 110.106,245.928 245.929,245.928 54.538,0 104.919,-17.764 145.702,-47.806 -2.169,-0.146 -4.286,-1.097 -5.853,-2.847 l -40.28,-45.014 -21.693,33.293 -17.911,-90.492 92.117,28.655 -39.651,17.035 40.28,45.016 c 1.869,2.086 2.503,4.825 2.012,7.378 55.635,-45.087 91.206,-113.957 91.206,-191.147 C 491.858,110.106 381.752,0.001 245.929,0.001 Z"
   id="path2"
   inkscape:connector-curvature="0"
   style="fill:#203939;fill-opacity:1" />
			<g
   style="enable-background:new"
   id="g10">
				<path
   style="fill:#ffffff"
   d="m 91.849,263.346 2.255,12.53 0.25,0.084 2.757,-12.614 18.21,-57.806 h 12.53 l 18.211,57.806 2.924,13.7 h 0.25 l 2.84,-13.7 14.619,-57.806 h 15.371 l -26.23,90.385 h -12.531 l -17.876,-55.718 -3.926,-16.123 h -0.25 l -3.759,16.123 -17.542,55.718 H 87.338 L 61.108,205.54 h 15.454 z"
   id="path4"
   inkscape:connector-curvature="0" />
				<path
   style="fill:#ffffff"
   d="m 221.329,263.346 2.255,12.53 0.25,0.084 2.757,-12.614 18.21,-57.806 h 12.531 l 18.211,57.806 2.922,13.7 h 0.252 l 2.84,-13.7 14.619,-57.806 h 15.369 l -26.229,90.385 h -12.531 l -17.877,-55.718 -3.926,-16.123 h -0.25 l -3.76,16.123 -17.542,55.718 h -12.614 l -26.23,-90.385 h 15.454 z"
   id="path6"
   inkscape:connector-curvature="0" />
				<path
   style="fill:#ffffff"
   d="m 350.809,263.346 2.255,12.53 0.251,0.084 2.757,-12.614 18.211,-57.806 h 12.53 l 18.211,57.806 2.923,13.7 h 0.251 l 2.84,-13.7 14.619,-57.806 h 15.37 l -26.229,90.385 h -12.53 l -17.877,-55.718 -3.926,-16.123 h -0.251 l -3.759,16.123 -17.543,55.718 h -12.613 l -26.23,-90.385 h 15.454 z"
   id="path8"
   inkscape:connector-curvature="0" />
			</g>
		</g>
	</g>
	<g
   id="g16">
	</g>
	<g
   id="g18">
	</g>
	<g
   id="g20">
	</g>
	<g
   id="g22">
	</g>
	<g
   id="g24">
	</g>
	<g
   id="g26">
	</g>
	<g
   id="g28">
	</g>
	<g
   id="g30">
	</g>
	<g
   id="g32">
	</g>
	<g
   id="g34">
	</g>
	<g
   id="g36">
	</g>
	<g
   id="g38">
	</g>
	<g
   id="g40">
	</g>
	<g
   id="g42">
	</g>
	<g
   id="g44">
	</g>
</g>
<g
   id="g48">
</g>
<g
   id="g50">
</g>
<g
   id="g52">
</g>
<g
   id="g54">
</g>
<g
   id="g56">
</g>
<g
   id="g58">
</g>
<g
   id="g60">
</g>
<g
   id="g62">
</g>
<g
   id="g64">
</g>
<g
   id="g66">
</g>
<g
   id="g68">
</g>
<g
   id="g70">
</g>
<g
   id="g72">
</g>
<g
   id="g74">
</g>
<g
   id="g76">
</g>
</svg>
