<?xml version="1.0" encoding="UTF-8" standalone="no"?>
<!--
  #%L
  STRep
  %%
  Copyright (C) 2019 - 2024 SING Group (University of Vigo)
  %%
  This program is free software: you can redistribute it and/or modify
  it under the terms of the GNU General Public License as
  published by the Free Software Foundation, either version 3 of the
  License, or (at your option) any later version.
  
  This program is distributed in the hope that it will be useful,
  but WITHOUT ANY WARRANTY; without even the implied warranty of
  MERCHANTABILITY or FITNESS FOR A PARTICULAR PURPOSE.  See the
  GNU General Public License for more details.
  
  You should have received a copy of the GNU General Public
  License along with this program.  If not, see
  <http://www.gnu.org/licenses/gpl-3.0.html>.
  #L%
  -->

<!-- Generator: Adobe Illustrator 16.0.0, SVG Export Plug-In . SVG Version: 6.00 Build 0)  -->

<svg
   xmlns:dc="http://purl.org/dc/elements/1.1/"
   xmlns:cc="http://creativecommons.org/ns#"
   xmlns:rdf="http://www.w3.org/1999/02/22-rdf-syntax-ns#"
   xmlns:svg="http://www.w3.org/2000/svg"
   xmlns="http://www.w3.org/2000/svg"
   xmlns:sodipodi="http://sodipodi.sourceforge.net/DTD/sodipodi-0.dtd"
   xmlns:inkscape="http://www.inkscape.org/namespaces/inkscape"
   version="1.1"
   id="Capa_1"
   x="0px"
   y="0px"
   width="485.213px"
   height="485.212px"
   viewBox="0 0 485.213 485.212"
   style="enable-background:new 0 0 485.213 485.212;"
   xml:space="preserve"
   sodipodi:docname="lock.svg"
   inkscape:version="0.92.4 (unknown)"><metadata
   id="metadata41"><rdf:RDF><cc:Work
       rdf:about=""><dc:format>image/svg+xml</dc:format><dc:type
         rdf:resource="http://purl.org/dc/dcmitype/StillImage" /></cc:Work></rdf:RDF></metadata><defs
   id="defs39" /><sodipodi:namedview
   pagecolor="#ffffff"
   bordercolor="#666666"
   borderopacity="1"
   objecttolerance="10"
   gridtolerance="10"
   guidetolerance="10"
   inkscape:pageopacity="0"
   inkscape:pageshadow="2"
   inkscape:window-width="1920"
   inkscape:window-height="1015"
   id="namedview37"
   showgrid="false"
   inkscape:zoom="0.48638533"
   inkscape:cx="260.08236"
   inkscape:cy="242.606"
   inkscape:window-x="0"
   inkscape:window-y="0"
   inkscape:window-maximized="1"
   inkscape:current-layer="Capa_1" />
<g
   id="g4"
   style="fill:#203939;fill-opacity:1">
	<path
   d="M363.908,212.282v-90.978C363.908,54.434,309.509,0,242.606,0c-66.884,0-121.302,54.434-121.302,121.304v90.978   c-33.498,0-60.653,27.158-60.653,60.648v151.629c0,33.5,27.155,60.653,60.653,60.653h242.604c33.491,0,60.653-27.153,60.653-60.653   V272.93C424.562,239.439,397.399,212.282,363.908,212.282z M257.77,359.257v50.139c0,8.382-6.781,15.163-15.163,15.163   c-8.382,0-15.164-6.781-15.164-15.163v-50.139c-8.9-5.269-15.161-14.57-15.161-25.673c0-16.765,13.579-30.327,30.324-30.327   c16.745,0,30.326,13.562,30.326,30.327C272.933,344.687,266.665,353.989,257.77,359.257z M303.255,212.282h-121.3v-90.978   c0-33.465,27.2-60.653,60.651-60.653c33.435,0,60.648,27.188,60.648,60.653V212.282z"
   id="path2"
   style="fill:#203939;fill-opacity:1" />
</g>
<g
   id="g6">
</g>
<g
   id="g8">
</g>
<g
   id="g10">
</g>
<g
   id="g12">
</g>
<g
   id="g14">
</g>
<g
   id="g16">
</g>
<g
   id="g18">
</g>
<g
   id="g20">
</g>
<g
   id="g22">
</g>
<g
   id="g24">
</g>
<g
   id="g26">
</g>
<g
   id="g28">
</g>
<g
   id="g30">
</g>
<g
   id="g32">
</g>
<g
   id="g34">
</g>
</svg>
