<?xml version="1.0" encoding="UTF-8" standalone="no"?>
<!--
  #%L
  STRep
  %%
  Copyright (C) 2019 - 2024 SING Group (University of Vigo)
  %%
  This program is free software: you can redistribute it and/or modify
  it under the terms of the GNU General Public License as
  published by the Free Software Foundation, either version 3 of the
  License, or (at your option) any later version.
  
  This program is distributed in the hope that it will be useful,
  but WITHOUT ANY WARRANTY; without even the implied warranty of
  MERCHANTABILITY or FITNESS FOR A PARTICULAR PURPOSE.  See the
  GNU General Public License for more details.
  
  You should have received a copy of the GNU General Public
  License along with this program.  If not, see
  <http://www.gnu.org/licenses/gpl-3.0.html>.
  #L%
  -->

<svg
   xmlns:dc="http://purl.org/dc/elements/1.1/"
   xmlns:cc="http://creativecommons.org/ns#"
   xmlns:rdf="http://www.w3.org/1999/02/22-rdf-syntax-ns#"
   xmlns:svg="http://www.w3.org/2000/svg"
   xmlns="http://www.w3.org/2000/svg"
   xmlns:sodipodi="http://sodipodi.sourceforge.net/DTD/sodipodi-0.dtd"
   xmlns:inkscape="http://www.inkscape.org/namespaces/inkscape"
   version="1.1"
   x="0px"
   y="0px"
   viewBox="0 0 31 31.000001"
   xml:space="preserve"
   id="svg16"
   sodipodi:docname="noun_Exit_1280140.white.svg"
   width="31"
   height="31"
   inkscape:version="0.92.3 (2405546, 2018-03-11)"><metadata
     id="metadata22"><rdf:RDF><cc:Work
         rdf:about=""><dc:format>image/svg+xml</dc:format><dc:type
           rdf:resource="http://purl.org/dc/dcmitype/StillImage" /><dc:title></dc:title></cc:Work></rdf:RDF></metadata><defs
     id="defs20" /><sodipodi:namedview
     pagecolor="#ffffff"
     bordercolor="#000000"
     borderopacity="0"
     objecttolerance="10"
     gridtolerance="10"
     guidetolerance="10"
     inkscape:pageopacity="0"
     inkscape:pageshadow="2"
     inkscape:window-width="1716"
     inkscape:window-height="1381"
     id="namedview18"
     showgrid="false"
     inkscape:zoom="12.572418"
     inkscape:cx="16.480746"
     inkscape:cy="11.430976"
     inkscape:window-x="0"
     inkscape:window-y="0"
     inkscape:window-maximized="0"
     inkscape:current-layer="g10"
     inkscape:showpageshadow="true"
     borderlayer="false" /><g
     id="g10"
     transform="translate(0,0.96655083)"><path
       d="M 14.123,2.759 0.88,0.101 C 0.651,0.056 0.44,0.115 0.26,0.262 0.079,0.409 0,0.629 0,0.861 v 25.407 c 0,0.578 0.407,1.075 0.975,1.188 l 12.768,2.554 c 0.356,0.071 0.629,-0.021 0.91,-0.252 C 14.934,29.527 15,29.185 15,28.821 V 3.948 C 15,3.37 14.689,2.872 14.123,2.759 Z m -1.486,15.114 c -0.548,0 -0.992,-0.444 -0.992,-0.991 0,-0.549 0.444,-0.992 0.992,-0.992 0.548,0 0.992,0.443 0.992,0.992 0,0.547 -0.444,0.991 -0.992,0.991 z"
       id="path2"
       style="fill:#ffffff"
       inkscape:connector-curvature="0" /><path
       d="m 21,13 h 2 V 2 C 23,0.896 22.104,0 21,0 H 8 l 8,2 h 5 z"
       id="path4"
       style="fill:#ffffff"
       inkscape:connector-curvature="0" /><path
       d="m 21,25 h -4 v 2 h 4 c 1.104,0 2,-0.896 2,-2 v -4 h -2 z"
       id="path6"
       style="fill:#ffffff"
       inkscape:connector-curvature="0" /><path
       d="m 31,17 -6,-5 v 3 h -6 c -0.553,0 -1,0.447 -1,1 v 2 c 0,0.553 0.447,1 1,1 h 6 v 3 z"
       id="path8"
       style="fill:#ffffff"
       inkscape:connector-curvature="0" /></g></svg>
