<?xml version="1.0" encoding="UTF-8" standalone="no"?>
<!--
  #%L
  STRep
  %%
  Copyright (C) 2019 - 2024 SING Group (University of Vigo)
  %%
  This program is free software: you can redistribute it and/or modify
  it under the terms of the GNU General Public License as
  published by the Free Software Foundation, either version 3 of the
  License, or (at your option) any later version.
  
  This program is distributed in the hope that it will be useful,
  but WITHOUT ANY WARRANTY; without even the implied warranty of
  MERCHANTABILITY or FITNESS FOR A PARTICULAR PURPOSE.  See the
  GNU General Public License for more details.
  
  You should have received a copy of the GNU General Public
  License along with this program.  If not, see
  <http://www.gnu.org/licenses/gpl-3.0.html>.
  #L%
  -->

<!-- Created with Inkscape (http://www.inkscape.org/) -->

<svg
   xmlns:dc="http://purl.org/dc/elements/1.1/"
   xmlns:cc="http://creativecommons.org/ns#"
   xmlns:rdf="http://www.w3.org/1999/02/22-rdf-syntax-ns#"
   xmlns:svg="http://www.w3.org/2000/svg"
   xmlns="http://www.w3.org/2000/svg"
   xmlns:sodipodi="http://sodipodi.sourceforge.net/DTD/sodipodi-0.dtd"
   xmlns:inkscape="http://www.inkscape.org/namespaces/inkscape"
   width="71.009712mm"
   height="71.009712mm"
   viewBox="0 0 71.009712 71.009712"
   version="1.1"
   id="svg3027"
   inkscape:version="0.92.3 (2405546, 2018-03-11)"
   sodipodi:docname="logo.svg">
  <defs
     id="defs3021" />
  <sodipodi:namedview
     id="base"
     pagecolor="#ffffff"
     bordercolor="#666666"
     borderopacity="1.0"
     inkscape:pageopacity="0.0"
     inkscape:pageshadow="2"
     inkscape:zoom="1.979899"
     inkscape:cx="70.865798"
     inkscape:cy="102.55489"
     inkscape:document-units="mm"
     inkscape:current-layer="text839"
     showgrid="false"
     inkscape:window-width="2493"
     inkscape:window-height="1025"
     inkscape:window-x="67"
     inkscape:window-y="27"
     inkscape:window-maximized="1" />
  <metadata
     id="metadata3024">
    <rdf:RDF>
      <cc:Work
         rdf:about="">
        <dc:format>image/svg+xml</dc:format>
        <dc:type
           rdf:resource="http://purl.org/dc/dcmitype/StillImage" />
        <dc:title />
      </cc:Work>
    </rdf:RDF>
  </metadata>
  <g
     inkscape:label="Capa 1"
     inkscape:groupmode="layer"
     id="layer1"
     transform="translate(-1.5368115,-2.9594301)">
    <path
       style="clip-rule:evenodd;fill:#203939;fill-rule:evenodd;stroke-width:0.01087105;image-rendering:optimizeQuality;shape-rendering:geometricPrecision;text-rendering:geometricPrecision"
       inkscape:connector-curvature="0"
       id="path1029"
       d="m 37.041667,2.9594301 c 19.600505,0 35.504855,15.8934779 35.504855,35.5048559 0,19.600505 -15.90435,35.504855 -35.504855,35.504855 -19.611378,0 -35.5048555,-15.90435 -35.5048555,-35.504855 0,-19.611378 15.8934775,-35.5048559 35.5048555,-35.5048559 z"
       class="fil0" />
    <path
       style="clip-rule:evenodd;fill:none;fill-rule:evenodd;stroke-width:0.01087105;image-rendering:optimizeQuality;shape-rendering:geometricPrecision;text-rendering:geometricPrecision"
       inkscape:connector-curvature="0"
       id="path1037"
       d="m 27.290333,42.573543 c -2.27205,3.489608 -6.946602,4.478874 -10.43621,2.217695"
       class="fil3" />
    <path
       class="fil4"
       d="m 55.409482,53.7001 c 2.023559,0.03104 3.826109,1.266906 4.10838,2.778875 0.218622,1.462216 -1.090717,2.634833 -3.018794,2.678412 -8.82161,0.728289 -18.789989,-1.688742 -26.083272,-5.621092 -7.417579,-3.98639 -12.105538,-9.574642 -14.46719,-16.456106 l -0.07581,-0.231433 -0.009,-0.136274 v 0 c -0.250446,-1.487087 1.145302,-2.721357 3.14004,-2.669788 1.902298,0.02234 2.911771,1.494047 3.248598,2.919466 1.923232,5.290588 7.150966,9.552227 12.879777,12.649881 5.760642,3.122524 12.838159,4.733901 19.82722,4.123825 l 0.328888,-0.04445 z"
       id="path1118-9"
       inkscape:connector-curvature="0"
       style="clip-rule:evenodd;display:inline;fill:#6ec4c4;fill-opacity:1;fill-rule:nonzero;stroke-width:0.03702043;image-rendering:optimizeQuality;shape-rendering:geometricPrecision;text-rendering:geometricPrecision"
       sodipodi:nodetypes="cccccccccccccc" />
    <path
       style="clip-rule:evenodd;display:inline;fill:#6ec4c4;fill-opacity:1;fill-rule:evenodd;stroke-width:0.02583609;image-rendering:optimizeQuality;shape-rendering:geometricPrecision;text-rendering:geometricPrecision"
       d="M 41.338776,17.642059 39.07163,21.55368 c 0.642358,0.956397 0.971457,2.149803 0.971457,3.592307 0,1.979766 -0.65175,3.535634 -1.955198,4.666929 -1.127887,0.977503 -2.715251,1.527017 -4.762725,1.650618 l -5.317842,9.172975 4.625172,-0.02578 h 8.939628 v 6.819851 h 4.029523 V 40.610721 H 49.37449 V 36.605757 H 45.601645 V 26.374131 H 41.572122 V 36.605757 H 34.957361 L 44.8009,19.657433 Z"
       id="path853"
       inkscape:connector-curvature="0" />
    <path
       style="clip-rule:evenodd;display:inline;fill:#ffffff;fill-rule:evenodd;stroke-width:0.02583609;image-rendering:optimizeQuality;shape-rendering:geometricPrecision;text-rendering:geometricPrecision"
       d="m 33.325164,31.463534 0.810574,-1.397622 c -0.553071,0.148418 -1.164333,0.22599 -1.839753,0.22599 -0.344308,0 -0.60893,-0.03676 -0.79338,-0.110531 -0.172161,-0.08608 -0.25791,-0.28209 -0.25791,-0.589507 v -8.945777 c 0,-0.344307 0.04287,-0.547672 0.128954,-0.609154 0.09837,-0.07377 0.326242,-0.110531 0.682846,-0.110531 1.684644,0 3.024896,0.454506 4.020927,1.36446 0.809609,0.720747 1.288421,1.699779 1.447977,2.927884 L 39.07163,21.553683 C 38.777626,21.11595 38.424348,20.722858 37.995779,20.386953 36.643144,19.304848 34.730773,18.764584 32.25914,18.764584 h -4.980105 v 0.828992 c 1.06981,0 1.605176,0.289123 1.605176,0.867066 v 9.333855 c 0,0.577945 -0.535366,0.867068 -1.605176,0.867068 v 0.828994 h 5.127482 c 0.31564,0 0.622274,-0.009 0.918647,-0.02702 z"
       id="path851"
       inkscape:connector-curvature="0" />
    <path
       style="clip-rule:evenodd;display:inline;fill:#6ec4c4;fill-opacity:1;fill-rule:evenodd;stroke-width:0.02583609;image-rendering:optimizeQuality;shape-rendering:geometricPrecision;text-rendering:geometricPrecision"
       d="m 37.525401,24.218744 -3.389663,5.847168 c 0.816331,-0.219075 1.502444,-0.596041 2.05222,-1.138484 0.934548,-0.922251 1.402535,-2.176748 1.402535,-3.763018 0,-0.332008 -0.02593,-0.644226 -0.06509,-0.945666 z"
       id="path849"
       inkscape:connector-curvature="0" />
    <g
       aria-label="S"
       style="font-style:normal;font-weight:normal;font-size:25.15229416px;line-height:1.25;font-family:sans-serif;letter-spacing:0px;word-spacing:0px;display:inline;fill:#000000;fill-opacity:1;stroke:none;stroke-width:0.62880737"
       id="text978-6-0">
      <path
         d="m 56.295671,48.978781 q 0,-0.84847 -0.608685,-1.512491 -0.608686,-0.682466 -1.475602,-1.162036 -0.866915,-0.498015 -1.733831,-1.014476 -0.848471,-0.51646 -1.457157,-1.309596 -0.608685,-0.811581 -0.608685,-1.862947 0,-1.438711 1.014476,-2.360962 1.014476,-0.940696 2.471632,-0.940696 0.700911,0 1.530936,0.33201 0.830026,0.313566 0.996031,0.313566 0.387346,0 0.590241,-0.645576 h 0.774691 l 0.44268,4.389914 h -0.903806 q -0.33201,-1.401821 -1.162036,-2.287182 -0.830026,-0.885361 -1.973617,-0.885361 -0.77469,0 -1.254261,0.405791 -0.47957,0.387345 -0.47957,1.125146 0,0.350455 0.166005,0.66402 0.166005,0.313566 0.498015,0.608686 0.332011,0.29512 0.553351,0.44268 0.22134,0.14756 0.62713,0.405791 2.231847,1.328041 2.822088,1.807611 1.383376,1.125146 1.475601,2.656083 0,0.11067 0,0.239785 0,1.420266 -1.106701,2.508522 -1.088256,1.088256 -2.988092,1.088256 -0.682466,0 -1.604717,-0.33201 -0.903806,-0.33201 -1.106701,-0.33201 -0.44268,0 -0.534905,0.66402 h -0.793136 l -0.590241,-4.426804 h 0.830026 q 0.479571,1.457156 1.401821,2.360962 0.940696,0.903806 2.250292,0.903806 0.830026,0 1.383377,-0.534905 0.55335,-0.534906 0.55335,-1.309597 z"
         style="font-style:normal;font-variant:normal;font-weight:bold;font-stretch:normal;font-size:18.44501686px;font-family:Kinnari;-inkscape-font-specification:'Kinnari Bold';fill:#ffffff;stroke-width:0.62880737"
         id="path867" />
    </g>
    <g
       aria-label="R"
       style="font-style:normal;font-variant:normal;font-weight:normal;font-stretch:normal;font-size:25.15229416px;line-height:1.25;font-family:'Signatra DEMO';-inkscape-font-specification:'Signatra DEMO';letter-spacing:0px;word-spacing:0px;display:inline;fill:#000000;fill-opacity:1;stroke:none;stroke-width:0.62880737"
       id="text839">
      <path
         d="M 26.807603,31.478329 H 23.52439 l -4.389914,-5.66262 -0.682465,0.01845 v 3.947233 q 0,0.866916 1.623161,0.866916 v 0.830026 h -5.533505 v -0.830026 q 1.549381,0 1.549381,-0.866916 v -9.333178 q 0,-0.866916 -1.549381,-0.866916 v -0.830026 h 5.090825 q 2.453187,0 3.781228,0.903806 1.346486,0.885361 1.346486,2.582302 0,1.383377 -0.88536,2.194957 -0.866916,0.811581 -2.250293,1.088256 l 3.393884,4.205464 q 0.3689,0.461126 0.7378,0.682466 0.368901,0.202895 1.051366,0.276675 z m -4.500584,-9.204064 q 0,-1.198926 -0.756246,-1.770721 -0.756245,-0.590241 -1.973616,-0.590241 h -0.350456 q -0.51646,0 -0.645575,0.11067 -0.129115,0.09222 -0.129115,0.553351 v 4.131684 q 1.918281,-0.09223 2.877422,-0.627131 0.977586,-0.534906 0.977586,-1.807612 z"
         style="font-style:normal;font-variant:normal;font-weight:bold;font-stretch:normal;font-size:18.44501686px;font-family:Kinnari;-inkscape-font-specification:'Kinnari Bold';fill:#ffffff;stroke-width:0.62880737"
         id="path864" />
    </g>
  </g>
</svg>
