<?xml version="1.0" encoding="UTF-8" standalone="no"?>
<!-- Created with Inkscape (http://www.inkscape.org/) -->

<svg
   xmlns:dc="http://purl.org/dc/elements/1.1/"
   xmlns:cc="http://creativecommons.org/ns#"
   xmlns:rdf="http://www.w3.org/1999/02/22-rdf-syntax-ns#"
   xmlns:svg="http://www.w3.org/2000/svg"
   xmlns="http://www.w3.org/2000/svg"
   xmlns:sodipodi="http://sodipodi.sourceforge.net/DTD/sodipodi-0.dtd"
   xmlns:inkscape="http://www.inkscape.org/namespaces/inkscape"
   width="71.009712mm"
   height="71.009712mm"
   viewBox="0 0 71.009712 71.009712"
   version="1.1"
   id="svg3027"
   inkscape:version="0.92.3 (2405546, 2018-03-11)"
   sodipodi:docname="logo.svg">
  <defs
     id="defs3021" />
  <sodipodi:namedview
     id="base"
     pagecolor="#ffffff"
     bordercolor="#666666"
     borderopacity="1.0"
     inkscape:pageopacity="0.0"
     inkscape:pageshadow="2"
     inkscape:zoom="0.35"
     inkscape:cx="-122.95128"
     inkscape:cy="288.47729"
     inkscape:document-units="mm"
     inkscape:current-layer="layer1"
     showgrid="false"
     inkscape:window-width="2493"
     inkscape:window-height="1025"
     inkscape:window-x="67"
     inkscape:window-y="27"
     inkscape:window-maximized="1" />
  <metadata
     id="metadata3024">
    <rdf:RDF>
      <cc:Work
         rdf:about="">
        <dc:format>image/svg+xml</dc:format>
        <dc:type
           rdf:resource="http://purl.org/dc/dcmitype/StillImage" />
        <dc:title></dc:title>
      </cc:Work>
    </rdf:RDF>
  </metadata>
  <g
     inkscape:label="Capa 1"
     inkscape:groupmode="layer"
     id="layer1"
     transform="translate(-1.5368115,-2.9594301)">
    <path
       style="clip-rule:evenodd;fill:#203939;fill-rule:evenodd;stroke-width:0.01087105;image-rendering:optimizeQuality;shape-rendering:geometricPrecision;text-rendering:geometricPrecision"
       inkscape:connector-curvature="0"
       id="path1029"
       d="m 37.041667,2.9594301 c 19.600505,0 35.504855,15.8934779 35.504855,35.5048559 0,19.600505 -15.90435,35.504855 -35.504855,35.504855 -19.611378,0 -35.5048555,-15.90435 -35.5048555,-35.504855 0,-19.611378 15.8934775,-35.5048559 35.5048555,-35.5048559 z"
       class="fil0" />
    <path
       style="clip-rule:evenodd;fill:#fefefe;fill-rule:evenodd;stroke-width:0.01087105;image-rendering:optimizeQuality;shape-rendering:geometricPrecision;text-rendering:geometricPrecision"
       inkscape:connector-curvature="0"
       id="path1031"
       d="m 34.07387,37.355438 c -0.02175,-0.01087 -0.04348,0 -0.06523,0 0.02175,0.130453 0.03261,0.271777 0.03261,0.40223 0.02175,0.250034 0.02175,0.51094 0.02175,0.782714 0,0.337003 -0.01087,0.674005 -0.04348,1.000139 -0.02175,0.217418 -0.04349,0.423971 -0.0761,0.63052 0.04348,0 0.0761,0.01088 0.119581,0.01088 l 2.706891,0.01087 h 0.184809 l 0.119581,0.152196 c 0.239165,0.304387 0.543552,0.565293 0.891426,0.73923 0.337003,0.163066 0.717489,0.260906 1.11972,0.260906 l 23.307534,0.141324 c 0.695749,0 1.337138,-0.282649 1.804594,-0.739232 0.467455,-0.467456 0.760973,-1.097976 0.760973,-1.804594 0.01087,-0.695748 -0.282646,-1.33714 -0.73923,-1.804595 -0.456583,-0.467456 -1.097976,-0.760974 -1.804596,-0.760974 L 39.118045,36.235727 c -0.40223,0 -0.782717,0.08697 -1.119719,0.260905 -0.358743,0.163066 -0.663133,0.413102 -0.902296,0.717489 l -0.119583,0.152197 h -0.195678 z"
       class="fil1" />
    <g
       transform="matrix(0.01087105,0,0,0.01087105,1.5368115,-53.330873)"
       style="clip-rule:evenodd;fill-rule:evenodd;image-rendering:optimizeQuality;shape-rendering:geometricPrecision;text-rendering:geometricPrecision"
       id="g1035">
      <path
         style="fill:#fefefe;fill-rule:nonzero"
         inkscape:connector-curvature="0"
         id="path1033"
         d="m 662,8437 c 2,-310 129,-591 334,-793 205,-203 487,-327 797,-325 311,2 592,129 794,334 202,205 326,486 324,797 v 1 c -1,310 -129,591 -333,793 -205,202 -487,326 -797,325 h -1 C 1469,9567 1189,9439 987,9235 784,9030 660,8748 662,8437 Z m 453,-673 c -174,172 -283,410 -284,674 -2,264 104,504 276,678 172,174 410,282 674,284 v 0 c 264,1 504,-104 678,-276 174,-172 282,-410 284,-674 v 0 c 1,-264 -104,-504 -276,-678 -172,-174 -411,-283 -675,-284 -264,-2 -503,104 -677,276 z m 1628,686 z m -962,950 z"
         class="fil2" />
    </g>
    <path
       style="clip-rule:evenodd;fill:none;fill-rule:evenodd;stroke-width:0.01087105;image-rendering:optimizeQuality;shape-rendering:geometricPrecision;text-rendering:geometricPrecision"
       inkscape:connector-curvature="0"
       id="path1037"
       d="m 27.290333,42.573543 c -2.27205,3.489608 -6.946602,4.478874 -10.43621,2.217695"
       class="fil3" />
    <path
       style="clip-rule:evenodd;fill:#fefefe;fill-rule:nonzero;stroke-width:0.01087105;image-rendering:optimizeQuality;shape-rendering:geometricPrecision;text-rendering:geometricPrecision"
       inkscape:connector-curvature="0"
       id="path1039"
       d="m 26.583714,41.975634 c 0.337003,-0.391358 0.913169,-0.434842 1.304527,-0.108709 0.369616,0.326131 0.423969,0.880555 0.119582,1.271913 -1.271914,1.913305 -3.19609,3.152606 -5.283332,3.598317 -2.119855,0.445715 -4.413647,0.08697 -6.370436,-1.184944 l -0.06523,-0.04348 -0.03261,-0.02175 v 0 c -0.380487,-0.326133 -0.434842,-0.91317 -0.09784,-1.293656 0.31526,-0.369615 0.869684,-0.423971 1.250171,-0.130453 1.521947,0.956654 3.293928,1.228429 4.935457,0.880554 1.6524,-0.358743 3.174347,-1.337138 4.174484,-2.869956 l 0.04348,-0.0761 z"
       class="fil2" />
    <path
       style="clip-rule:evenodd;fill:#fefefe;fill-rule:nonzero;stroke-width:0.01087105;image-rendering:optimizeQuality;shape-rendering:geometricPrecision;text-rendering:geometricPrecision"
       inkscape:connector-curvature="0"
       id="path1041"
       d="m 45.56457,48.302587 c 0,0.576167 -0.250034,1.043622 -0.72836,1.402365 -0.489197,0.358746 -1.152332,0.532683 -1.989403,0.532683 -0.489196,0 -0.902298,-0.04348 -1.261041,-0.119583 -0.369615,-0.08697 -0.695748,-0.195678 -1.011007,-0.326131 v -1.402366 h 0.163065 c 0.30439,0.250034 0.652264,0.445715 1.04362,0.576167 0.380487,0.130453 0.750104,0.195678 1.108848,0.195678 0.09784,0 0.206549,-0.01087 0.358746,-0.02175 0.152193,-0.01087 0.271774,-0.04349 0.369615,-0.0761 0.108709,-0.05435 0.206549,-0.108709 0.282646,-0.173937 0.0761,-0.0761 0.108712,-0.184806 0.108712,-0.315259 0,-0.130453 -0.05436,-0.239165 -0.163065,-0.337002 -0.108712,-0.08697 -0.260906,-0.163066 -0.478327,-0.217422 -0.217422,-0.04348 -0.445715,-0.09784 -0.695749,-0.141324 -0.239162,-0.04349 -0.467455,-0.10871 -0.684876,-0.173937 -0.489196,-0.163066 -0.847942,-0.380487 -1.065361,-0.652262 -0.206552,-0.271777 -0.315262,-0.60878 -0.315262,-1.021879 0,-0.543552 0.239163,-0.978395 0.728361,-1.326269 0.489196,-0.347874 1.108848,-0.510939 1.88069,-0.510939 0.38049,0 0.760976,0.03261 1.141463,0.108709 0.369615,0.0761 0.695746,0.163068 0.967523,0.282649 v 1.337138 h -0.152196 c -0.239162,-0.184806 -0.53268,-0.337002 -0.869683,-0.467455 -0.337002,-0.130453 -0.684876,-0.184806 -1.043622,-0.184806 -0.13045,0 -0.250034,0 -0.369615,0.02175 -0.130453,0.02175 -0.250034,0.04349 -0.358744,0.09784 -0.108712,0.03261 -0.19568,0.09784 -0.271777,0.173937 -0.06522,0.0761 -0.108709,0.173937 -0.108709,0.271775 0,0.152196 0.06522,0.271777 0.184806,0.358745 0.108712,0.0761 0.337002,0.152194 0.663136,0.217422 0.217418,0.05435 0.423971,0.09784 0.619649,0.130453 0.195677,0.04348 0.40223,0.108709 0.63052,0.173937 0.456584,0.152193 0.782717,0.347871 0.989267,0.597908 0.217421,0.250034 0.32613,0.587036 0.32613,0.989265 z m 5.859497,-2.16334 c 0,0.260906 -0.04348,0.51094 -0.130453,0.760974 -0.09784,0.250034 -0.22829,0.467455 -0.391355,0.63052 -0.239165,0.228294 -0.500071,0.402231 -0.782717,0.521812 -0.282647,0.119581 -0.641393,0.173937 -1.065364,0.173937 h -0.93491 v 1.913305 H 46.608193 V 44.29117 h 2.478598 c 0.369618,0 0.684877,0.03261 0.934911,0.09784 0.260905,0.06523 0.478327,0.163068 0.674004,0.293518 0.239165,0.152196 0.423971,0.347874 0.543555,0.587039 0.13045,0.239162 0.184806,0.53268 0.184806,0.869682 z m -1.565431,0.03261 c 0,-0.163065 -0.04348,-0.304387 -0.130453,-0.423971 -0.08697,-0.119581 -0.195678,-0.20655 -0.30439,-0.250034 -0.163065,-0.06522 -0.315259,-0.09784 -0.456583,-0.09784 -0.152194,-0.01087 -0.347874,-0.01087 -0.597908,-0.01087 h -0.250034 v 1.739368 h 0.423971 c 0.250034,0 0.467455,-0.01087 0.630521,-0.04348 0.163065,-0.03261 0.304389,-0.09784 0.413099,-0.184809 0.09784,-0.08697 0.163068,-0.184806 0.206552,-0.30439 0.04348,-0.119581 0.06522,-0.260903 0.06522,-0.423971 z m 8.033708,3.967935 h -1.565431 l -0.40223,-1.184944 h -2.152468 l -0.40223,1.184944 h -1.521947 l 2.15247,-5.848625 h 1.728497 z m -2.326405,-2.250308 -0.717489,-2.07637 -0.717491,2.07637 z m 9.294749,2.250308 h -1.511077 v -3.913579 l -1.076233,2.532954 h -1.03275 l -1.087105,-2.532954 v 3.913579 H 58.729414 V 44.29117 h 1.761112 l 1.304525,2.935184 1.304526,-2.935184 h 1.761111 z"
       class="fil2" />
    <path
       style="clip-rule:evenodd;fill:#fefefe;fill-rule:nonzero;stroke-width:0.01087105;image-rendering:optimizeQuality;shape-rendering:geometricPrecision;text-rendering:geometricPrecision"
       inkscape:connector-curvature="0"
       id="path1043"
       d="m 38.052674,29.539152 c 0,-0.152195 -0.03261,-0.271777 -0.08697,-0.380487 -0.06522,-0.09784 -0.163065,-0.184808 -0.30439,-0.239163 -0.108709,-0.04348 -0.217421,-0.06523 -0.358743,-0.0761 -0.130453,-0.01087 -0.282649,-0.01087 -0.467455,-0.01087 h -0.532683 v 1.55456 h 0.456586 c 0.239162,0 0.43484,-0.01087 0.587036,-0.03261 0.163066,-0.02175 0.30439,-0.0761 0.4131,-0.163065 0.09784,-0.0761 0.173937,-0.163066 0.217421,-0.260906 0.05436,-0.09784 0.0761,-0.228293 0.0761,-0.391358 z m 2.35902,4.054903 h -1.837209 l -1.598046,-2.141598 h -0.674005 v 2.141598 h -1.511075 v -5.837756 h 2.522085 c 0.347871,0 0.64139,0.01087 0.891426,0.05436 0.250034,0.04348 0.478324,0.119581 0.695746,0.250034 0.217421,0.130452 0.391358,0.304389 0.521811,0.510939 0.130453,0.20655 0.195678,0.467455 0.195678,0.782716 0,0.434841 -0.09784,0.782716 -0.293518,1.054493 -0.20655,0.271775 -0.489196,0.500068 -0.858814,0.684874 z m 6.185627,-2.913443 c 0,0.543552 -0.119581,1.03275 -0.369615,1.456721 -0.250036,0.434843 -0.565295,0.760974 -0.945782,0.989267 -0.282646,0.173937 -0.597908,0.293518 -0.934911,0.369615 -0.347874,0.06523 -0.750101,0.09784 -1.206687,0.09784 h -2.065499 v -5.837756 h 2.119855 c 0.478327,0 0.891426,0.03261 1.228428,0.119582 0.347874,0.0761 0.641393,0.184808 0.869686,0.337002 0.413099,0.239164 0.728358,0.576166 0.956651,0.989266 0.228293,0.423971 0.347874,0.91317 0.347874,1.478463 z m -1.565431,-0.01087 c 0,-0.391356 -0.0761,-0.717489 -0.20655,-0.989264 -0.141324,-0.271776 -0.358745,-0.489197 -0.663135,-0.641392 -0.152194,-0.0761 -0.315259,-0.130453 -0.478327,-0.152195 -0.152194,-0.03261 -0.391356,-0.04348 -0.717489,-0.04348 h -0.380487 v 3.652672 h 0.380487 c 0.358745,0 0.619651,-0.02175 0.782716,-0.05435 0.163066,-0.03262 0.326131,-0.08697 0.489196,-0.173937 0.271778,-0.152197 0.478327,-0.369615 0.597909,-0.630521 0.130452,-0.260906 0.19568,-0.587039 0.19568,-0.967526 z m 8.109805,2.924315 H 51.576264 L 51.174033,32.40911 h -2.141595 l -0.413102,1.184947 h -1.521947 l 2.152467,-5.837755 h 1.739369 z M 50.81529,31.34375 50.097798,29.267378 49.391181,31.34375 Z m 7.740187,-2.456859 h -1.815465 v 4.707166 H 55.228937 V 28.886894 H 53.4026 v -1.13059 h 5.152877 z m 6.305211,4.707166 h -1.565431 l -0.40223,-1.184947 h -2.141596 l -0.413101,1.184947 h -1.521947 l 2.152467,-5.837755 h 1.739368 z M 62.534284,31.34375 61.816792,29.267378 61.110175,31.34375 Z"
       class="fil2" />
    <polygon
       transform="matrix(0.01087105,0,0,0.01087105,1.5368115,-53.330873)"
       style="clip-rule:evenodd;fill:#fefefe;fill-rule:evenodd;image-rendering:optimizeQuality;shape-rendering:geometricPrecision;text-rendering:geometricPrecision"
       id="polygon1045"
       points="1752,8048 1752,8444 1496,8444 1877,7788 1743,7710 1227,8599 1406,8599 1752,8599 1752,8863 1908,8863 1908,8599 2054,8599 2054,8444 1908,8444 1908,8048 "
       class="fil1" />
  </g>
</svg>
