<?xml version="1.0" encoding="UTF-8" standalone="no"?>
<!-- Created with Inkscape (http://www.inkscape.org/) -->

<svg
   xmlns:dc="http://purl.org/dc/elements/1.1/"
   xmlns:cc="http://creativecommons.org/ns#"
   xmlns:rdf="http://www.w3.org/1999/02/22-rdf-syntax-ns#"
   xmlns:svg="http://www.w3.org/2000/svg"
   xmlns="http://www.w3.org/2000/svg"
   xmlns:sodipodi="http://sodipodi.sourceforge.net/DTD/sodipodi-0.dtd"
   xmlns:inkscape="http://www.inkscape.org/namespaces/inkscape"
   width="56.616753mm"
   height="24.460184mm"
   viewBox="0 0 56.616753 24.460184"
   version="1.1"
   id="svg4314"
   inkscape:version="0.92.3 (2405546, 2018-03-11)"
   sodipodi:docname="logoBlanco.svg">
  <defs
     id="defs4308" />
  <sodipodi:namedview
     id="base"
     pagecolor="#ffffff"
     bordercolor="#666666"
     borderopacity="1.0"
     inkscape:pageopacity="0.0"
     inkscape:pageshadow="2"
     inkscape:zoom="2.8"
     inkscape:cx="205.0528"
     inkscape:cy="100.6923"
     inkscape:document-units="mm"
     inkscape:current-layer="layer1"
     showgrid="false"
     inkscape:window-width="2493"
     inkscape:window-height="1025"
     inkscape:window-x="67"
     inkscape:window-y="27"
     inkscape:window-maximized="1" />
  <metadata
     id="metadata4311">
    <rdf:RDF>
      <cc:Work
         rdf:about="">
        <dc:format>image/svg+xml</dc:format>
        <dc:type
           rdf:resource="http://purl.org/dc/dcmitype/StillImage" />
        <dc:title></dc:title>
      </cc:Work>
    </rdf:RDF>
  </metadata>
  <g
     inkscape:label="Capa 1"
     inkscape:groupmode="layer"
     id="layer1"
     transform="translate(-70.721387,-43.621097)">
    <g
       transform="matrix(0.01087105,0,0,0.01087105,63.525011,39.620808)"
       style="clip-rule:evenodd;fill-rule:evenodd;image-rendering:optimizeQuality;shape-rendering:geometricPrecision;text-rendering:geometricPrecision;fill:#ffffff"
       id="g1126">
      <path
         style="fill:#ffffff"
         inkscape:connector-curvature="0"
         id="path1110"
         d="m 2948,1361 c 15,-4 30,-6 46,-6 l 249,2 c 50,-64 127,-105 214,-104 l 2144,12 c 148,1 270,124 269,273 v 0 c -1,149 -124,270 -273,269 l -2143,-13 c -87,0 -164,-42 -213,-106 l -249,-2 c -18,0 -35,-3 -51,-8 10,-58 15,-117 16,-178 0,-47 -3,-94 -9,-139 z"
         class="fil0" />
      <g
         id="g1114"
         style="fill:#ffffff">
        <path
           style="fill:#ffffff;fill-rule:nonzero"
           inkscape:connector-curvature="0"
           id="path1112"
           d="m 662,1486 c 2,-310 129,-591 334,-793 205,-202 487,-327 797,-325 311,2 592,130 794,334 202,205 326,486 324,797 v 1 c -1,310 -129,591 -333,793 -205,202 -487,326 -797,325 h -1 C 1469,2616 1189,2488 987,2284 784,2079 660,1797 662,1486 Z m 453,-673 c -174,172 -283,410 -284,674 -2,264 104,504 276,678 172,174 410,282 674,284 v 0 c 264,2 504,-104 678,-276 174,-172 282,-410 284,-674 v 0 C 2744,1235 2639,995 2467,821 2295,647 2056,538 1792,537 1528,535 1289,641 1115,813 Z m 1628,686 z m -962,950 z"
           class="fil4" />
      </g>
      <path
         style="fill:#ffffff"
         inkscape:connector-curvature="0"
         id="path1116"
         d="m 2369,1871 c -209,321 -639,413 -960,204"
         class="fil3" />
      <path
         style="fill:#ffffff;fill-rule:nonzero"
         inkscape:connector-curvature="0"
         id="path1118"
         d="m 2304,1816 c 31,-36 84,-40 120,-10 34,30 39,81 11,117 -117,177 -294,290 -486,331 -195,42 -406,9 -586,-108 l -6,-4 -3,-3 v 0 c -35,-30 -40,-84 -9,-119 29,-34 80,-39 115,-12 140,88 303,113 454,81 152,-32 292,-123 384,-264 l 4,-7 z"
         class="fil4" />
      <path
         style="fill:#ffffff;fill-rule:nonzero"
         inkscape:connector-curvature="0"
         id="path1120"
         d="m 4050,2398 c 0,53 -23,96 -67,129 -45,33 -106,49 -183,49 -45,0 -83,-4 -116,-11 -34,-8 -64,-18 -93,-30 v -129 h 15 c 28,23 60,41 96,53 35,12 69,18 102,18 9,0 19,0 33,-2 14,-1 25,-4 34,-7 10,-4 19,-10 26,-16 7,-7 10,-17 10,-29 0,-12 -5,-22 -15,-31 -10,-8 -24,-15 -44,-19 -20,-5 -41,-10 -64,-14 -22,-4 -43,-10 -63,-16 -45,-15 -78,-35 -98,-60 -19,-25 -29,-56 -29,-93 0,-50 22,-91 67,-123 45,-32 102,-47 173,-47 35,0 70,3 105,10 34,7 64,15 89,26 v 123 h -14 c -22,-17 -49,-31 -80,-43 -31,-11 -63,-17 -96,-17 -12,0 -23,0 -34,2 -12,2 -23,5 -33,9 -10,4 -18,9 -25,16 -6,7 -10,16 -10,25 0,14 6,25 17,33 10,7 31,14 61,21 20,4 39,8 57,12 18,3 37,9 58,15 42,14 72,32 91,55 20,24 30,54 30,91 z m 539,-199 c 0,24 -4,47 -12,70 -9,23 -21,43 -36,58 -22,22 -46,37 -72,48 -26,11 -59,17 -98,17 h -86 v 175 h -139 v -538 h 228 c 34,0 63,3 86,9 24,6 44,15 62,27 22,14 39,32 50,54 12,22 17,49 17,80 z m -144,3 c 0,-15 -4,-28 -12,-39 -8,-11 -18,-18 -28,-23 -15,-5 -29,-9 -42,-9 -14,-1 -32,-1 -55,-1 h -23 v 160 h 39 c 23,0 43,-1 58,-4 15,-3 28,-9 38,-17 9,-8 15,-17 19,-28 4,-10 6,-24 6,-39 z m 739,365 h -144 l -37,-109 h -198 l -37,109 h -140 l 198,-538 h 159 z m -214,-207 -66,-191 -66,191 z m 855,207 h -139 v -360 l -99,233 h -95 l -100,-233 v 360 h -131 v -538 h 162 l 120,270 120,-270 h 162 z"
         class="fil4" />
      <path
         style="fill:#ffffff;fill-rule:nonzero"
         inkscape:connector-curvature="0"
         id="path1122"
         d="m 3359,672 c 0,-14 -3,-25 -8,-34 -6,-10 -15,-18 -28,-23 -10,-4 -20,-6 -33,-7 -12,-1 -26,-1 -43,-1 h -49 v 143 h 42 c 22,0 40,-1 54,-3 15,-2 28,-7 38,-15 9,-7 16,-15 20,-24 5,-9 7,-21 7,-36 z m 217,373 H 3407 L 3260,848 h -62 v 197 H 3059 V 508 h 232 c 32,0 59,2 82,5 23,4 44,12 64,23 20,13 36,28 48,47 12,19 18,43 18,72 0,40 -9,72 -27,97 -19,25 -45,46 -79,63 z m 569,-268 c 0,50 -11,95 -34,134 -23,40 -52,70 -87,92 -26,15 -55,27 -86,33 -32,6 -69,9 -111,9 H 3637 V 508 h 195 c 44,0 82,3 113,11 32,7 59,17 80,31 38,22 67,53 88,91 21,39 32,84 32,136 z m -144,-1 c 0,-36 -7,-66 -19,-91 -13,-25 -33,-45 -61,-59 -14,-7 -29,-11 -44,-14 -14,-3 -36,-4 -66,-4 h -35 v 336 h 35 c 33,0 57,-2 72,-5 15,-3 30,-8 45,-16 25,-14 44,-34 55,-58 12,-24 18,-54 18,-89 z m 746,269 h -144 l -37,-108 h -197 l -38,108 h -140 l 198,-537 h 160 z m -214,-207 -66,-191 -65,191 z m 712,-226 h -167 v 433 H 4939 V 612 H 4771 V 508 h 474 z m 580,433 h -144 l -37,-108 h -197 l -38,108 h -140 l 198,-537 h 160 z m -214,-207 -66,-191 -65,191 z"
         class="fil4" />
      <polygon
         style="fill:#ffffff"
         id="polygon1124"
         points="1752,1097 1752,1493 1496,1493 1877,837 1743,759 1227,1649 1406,1648 1752,1648 1752,1912 1908,1912 1908,1648 2054,1648 2054,1493 1908,1493 1908,1097 "
         class="fil0" />
    </g>
  </g>
</svg>
