<?xml version="1.0" encoding="UTF-8" standalone="no"?>
<!-- Created with Inkscape (http://www.inkscape.org/) -->

<svg
   xmlns:dc="http://purl.org/dc/elements/1.1/"
   xmlns:cc="http://creativecommons.org/ns#"
   xmlns:rdf="http://www.w3.org/1999/02/22-rdf-syntax-ns#"
   xmlns:svg="http://www.w3.org/2000/svg"
   xmlns="http://www.w3.org/2000/svg"
   xmlns:sodipodi="http://sodipodi.sourceforge.net/DTD/sodipodi-0.dtd"
   xmlns:inkscape="http://www.inkscape.org/namespaces/inkscape"
   width="71.009712mm"
   height="71.009712mm"
   viewBox="0 0 71.009712 71.009712"
   version="1.1"
   id="svg3027"
   inkscape:version="0.92.3 (2405546, 2018-03-11)"
   sodipodi:docname="logo2.svg">
  <defs
     id="defs3021" />
  <sodipodi:namedview
     id="base"
     pagecolor="#ffffff"
     bordercolor="#666666"
     borderopacity="1.0"
     inkscape:pageopacity="0.0"
     inkscape:pageshadow="2"
     inkscape:zoom="1.979899"
     inkscape:cx="70.865798"
     inkscape:cy="102.55489"
     inkscape:document-units="mm"
     inkscape:current-layer="layer1"
     showgrid="false"
     inkscape:window-width="2493"
     inkscape:window-height="1025"
     inkscape:window-x="67"
     inkscape:window-y="27"
     inkscape:window-maximized="1" />
  <metadata
     id="metadata3024">
    <rdf:RDF>
      <cc:Work
         rdf:about="">
        <dc:format>image/svg+xml</dc:format>
        <dc:type
           rdf:resource="http://purl.org/dc/dcmitype/StillImage" />
        <dc:title></dc:title>
      </cc:Work>
    </rdf:RDF>
  </metadata>
  <g
     inkscape:label="Capa 1"
     inkscape:groupmode="layer"
     id="layer1"
     transform="translate(-1.5368115,-2.9594301)">
    <path
       style="clip-rule:evenodd;fill:#203939;fill-rule:evenodd;stroke-width:0.01087105;image-rendering:optimizeQuality;shape-rendering:geometricPrecision;text-rendering:geometricPrecision"
       inkscape:connector-curvature="0"
       id="path1029"
       d="m 37.041667,2.9594301 c 19.600505,0 35.504855,15.8934779 35.504855,35.5048559 0,19.600505 -15.90435,35.504855 -35.504855,35.504855 -19.611378,0 -35.5048555,-15.90435 -35.5048555,-35.504855 0,-19.611378 15.8934775,-35.5048559 35.5048555,-35.5048559 z"
       class="fil0" />
    <path
       style="clip-rule:evenodd;fill:none;fill-rule:evenodd;stroke-width:0.01087105;image-rendering:optimizeQuality;shape-rendering:geometricPrecision;text-rendering:geometricPrecision"
       inkscape:connector-curvature="0"
       id="path1037"
       d="m 27.290333,42.573543 c -2.27205,3.489608 -6.946602,4.478874 -10.43621,2.217695"
       class="fil3" />
    <path
       class="fil4"
       d="m 55.409482,53.7001 c 2.023559,0.03104 3.826109,1.266906 4.10838,2.778875 0.218622,1.462216 -1.090717,2.634833 -3.018794,2.678412 -8.82161,0.728289 -18.789989,-1.688742 -26.083272,-5.621092 -7.417579,-3.98639 -12.105538,-9.574642 -14.46719,-16.456106 l -0.07581,-0.231433 -0.009,-0.136274 v 0 c -0.250446,-1.487087 1.145302,-2.721357 3.14004,-2.669788 1.902298,0.02234 2.911771,1.494047 3.248598,2.919466 1.923232,5.290588 7.150966,9.552227 12.879777,12.649881 5.760642,3.122524 12.838159,4.733901 19.82722,4.123825 l 0.328888,-0.04445 z"
       id="path1118-9"
       inkscape:connector-curvature="0"
       style="clip-rule:evenodd;display:inline;fill:#6ec4c4;fill-opacity:1;fill-rule:nonzero;stroke-width:0.03702043;image-rendering:optimizeQuality;shape-rendering:geometricPrecision;text-rendering:geometricPrecision"
       sodipodi:nodetypes="cccccccccccccc" />
    <path
       style="clip-rule:evenodd;display:inline;fill:#6ec4c4;fill-opacity:1;fill-rule:evenodd;stroke-width:0.02583609;image-rendering:optimizeQuality;shape-rendering:geometricPrecision;text-rendering:geometricPrecision"
       d="M 41.338776,17.642059 39.07163,21.55368 c 0.642358,0.956397 0.971457,2.149803 0.971457,3.592307 0,1.979766 -0.65175,3.535634 -1.955198,4.666929 -1.127887,0.977503 -2.715251,1.527017 -4.762725,1.650618 l -5.317842,9.172975 4.625172,-0.02578 h 8.939628 v 6.819851 h 4.029523 V 40.610721 H 49.37449 V 36.605757 H 45.601645 V 26.374131 H 41.572122 V 36.605757 H 34.957361 L 44.8009,19.657433 Z"
       id="path853"
       inkscape:connector-curvature="0" />
    <path
       style="clip-rule:evenodd;display:inline;fill:#ffffff;fill-rule:evenodd;stroke-width:0.02583609;image-rendering:optimizeQuality;shape-rendering:geometricPrecision;text-rendering:geometricPrecision"
       d="m 33.325164,31.463534 0.810574,-1.397622 c -0.553071,0.148418 -1.164333,0.22599 -1.839753,0.22599 -0.344308,0 -0.60893,-0.03676 -0.79338,-0.110531 -0.172161,-0.08608 -0.25791,-0.28209 -0.25791,-0.589507 v -8.945777 c 0,-0.344307 0.04287,-0.547672 0.128954,-0.609154 0.09837,-0.07377 0.326242,-0.110531 0.682846,-0.110531 1.684644,0 3.024896,0.454506 4.020927,1.36446 0.809609,0.720747 1.288421,1.699779 1.447977,2.927884 L 39.07163,21.553683 C 38.777626,21.11595 38.424348,20.722858 37.995779,20.386953 36.643144,19.304848 34.730773,18.764584 32.25914,18.764584 h -4.980105 v 0.828992 c 1.06981,0 1.605176,0.289123 1.605176,0.867066 v 9.333855 c 0,0.577945 -0.535366,0.867068 -1.605176,0.867068 v 0.828994 h 5.127482 c 0.31564,0 0.622274,-0.009 0.918647,-0.02702 z"
       id="path851"
       inkscape:connector-curvature="0" />
    <path
       style="clip-rule:evenodd;display:inline;fill:#6ec4c4;fill-opacity:1;fill-rule:evenodd;stroke-width:0.02583609;image-rendering:optimizeQuality;shape-rendering:geometricPrecision;text-rendering:geometricPrecision"
       d="m 37.525401,24.218744 -3.389663,5.847168 c 0.816331,-0.219075 1.502444,-0.596041 2.05222,-1.138484 0.934548,-0.922251 1.402535,-2.176748 1.402535,-3.763018 0,-0.332008 -0.02593,-0.644226 -0.06509,-0.945666 z"
       id="path849"
       inkscape:connector-curvature="0" />
    <text
       xml:space="preserve"
       style="font-style:normal;font-weight:normal;font-size:25.15229416px;line-height:1.25;font-family:sans-serif;letter-spacing:0px;word-spacing:0px;display:inline;fill:#000000;fill-opacity:1;stroke:none;stroke-width:0.62880737"
       x="49.3419"
       y="51.727089"
       id="text978-6-0"><tspan
         sodipodi:role="line"
         id="tspan976-6-4"
         x="49.3419"
         y="51.727089"
         style="font-style:normal;font-variant:normal;font-weight:bold;font-stretch:normal;font-size:18.44501686px;font-family:Kinnari;-inkscape-font-specification:'Kinnari Bold';fill:#ffffff;stroke-width:0.62880737"
         transform="translate(6.879167)">S</tspan></text>
    <text
       xml:space="preserve"
       style="font-style:normal;font-variant:normal;font-weight:normal;font-stretch:normal;font-size:25.15229416px;line-height:1.25;font-family:'Signatra DEMO';-inkscape-font-specification:'Signatra DEMO';letter-spacing:0px;word-spacing:0px;display:inline;fill:#000000;fill-opacity:1;stroke:none;stroke-width:0.62880737"
       x="14.541667"
       y="31.478329"
       id="text839"><tspan
         sodipodi:role="line"
         id="tspan837"
         x="14.541667"
         y="31.478329"
         style="font-style:normal;font-variant:normal;font-weight:bold;font-stretch:normal;font-size:18.44501686px;font-family:Kinnari;-inkscape-font-specification:'Kinnari Bold';fill:#ffffff;stroke-width:0.62880737">R</tspan></text>
  </g>
</svg>
