<?xml version="1.0" encoding="UTF-8" standalone="no"?>
<!-- Created with Inkscape (http://www.inkscape.org/) -->

<svg
   xmlns:dc="http://purl.org/dc/elements/1.1/"
   xmlns:cc="http://creativecommons.org/ns#"
   xmlns:rdf="http://www.w3.org/1999/02/22-rdf-syntax-ns#"
   xmlns:svg="http://www.w3.org/2000/svg"
   xmlns="http://www.w3.org/2000/svg"
   xmlns:sodipodi="http://sodipodi.sourceforge.net/DTD/sodipodi-0.dtd"
   xmlns:inkscape="http://www.inkscape.org/namespaces/inkscape"
   width="20.629234mm"
   height="18.217009mm"
   viewBox="0 0 20.629234 18.217009"
   version="1.1"
   id="svg4314"
   inkscape:version="0.92.3 (2405546, 2018-03-11)"
   sodipodi:docname="logoBlanco.svg">
  <defs
     id="defs4308" />
  <sodipodi:namedview
     id="base"
     pagecolor="#ffffff"
     bordercolor="#666666"
     borderopacity="1.0"
     inkscape:pageopacity="0.0"
     inkscape:pageshadow="2"
     inkscape:zoom="3.959798"
     inkscape:cx="-28.174859"
     inkscape:cy="36.66379"
     inkscape:document-units="mm"
     inkscape:current-layer="layer2"
     showgrid="false"
     inkscape:window-width="2493"
     inkscape:window-height="1025"
     inkscape:window-x="67"
     inkscape:window-y="27"
     inkscape:window-maximized="1"
     showguides="true"
     inkscape:guide-bbox="true">
    <sodipodi:guide
       position="17.868057,12.098359"
       orientation="0,1"
       id="guide841"
       inkscape:locked="false" />
    <sodipodi:guide
       position="5.7741114,-13.359064"
       orientation="1,0"
       id="guide843"
       inkscape:locked="false" />
  </sodipodi:namedview>
  <metadata
     id="metadata4311">
    <rdf:RDF>
      <cc:Work
         rdf:about="">
        <dc:format>image/svg+xml</dc:format>
        <dc:type
           rdf:resource="http://purl.org/dc/dcmitype/StillImage" />
        <dc:title></dc:title>
      </cc:Work>
    </rdf:RDF>
  </metadata>
  <g
     inkscape:label="Capa 1"
     inkscape:groupmode="layer"
     id="layer1"
     transform="translate(-116.26302,-47.329624)">
    <g
       style="clip-rule:evenodd;fill:#ffffff;fill-rule:evenodd;image-rendering:optimizeQuality;shape-rendering:geometricPrecision;text-rendering:geometricPrecision"
       id="g1114"
       transform="matrix(0.01263569,0,0,0.01305488,59.843322,36.360364)">
      <path
         class="fil4"
         d="m 662,1486 c 2,-310 129,-591 334,-793 205,-202 487,-327 797,-325 311,2 592,130 794,334 202,205 326,486 324,797 v 1 c -1,310 -129,591 -333,793 -205,202 -487,326 -797,325 h -1 C 1469,2616 1189,2488 987,2284 784,2079 660,1797 662,1486 Z m 453,-673 c -174,172 -283,410 -284,674 -2,264 104,504 276,678 172,174 410,282 674,284 v 0 c 264,2 504,-104 678,-276 174,-172 282,-410 284,-674 v 0 C 2744,1235 2639,995 2467,821 2295,647 2056,538 1792,537 1528,535 1289,641 1115,813 Z m 1628,686 z m -962,950 z"
         id="path1112"
         inkscape:connector-curvature="0"
         style="fill:#ffffff;fill-rule:nonzero" />
    </g>
    <path
       class="fil4"
       d="m 85.282242,64.130316 c 0.480606,-0.189077 1.010582,0.0411 1.204727,0.512094 0.174913,0.460852 -0.03551,0.976662 -0.48727,1.180945 -2.022374,1.109152 -4.580799,1.293615 -6.635085,0.714691 -2.088202,-0.584511 -3.66668,-1.96633 -4.804682,-4.003911 l -0.03742,-0.06888 -0.01364,-0.04405 v 0 c -0.184529,-0.465921 0.04111,-1.010582 0.516637,-1.190043 0.451234,-0.179982 0.967044,0.03045 1.166778,0.467517 0.900321,1.555934 2.341169,2.622581 3.955537,3.080234 1.623984,0.462722 3.43163,0.297211 5.0311,-0.592446 l 0.07394,-0.04706 z"
       id="path1118"
       inkscape:connector-curvature="0"
       style="clip-rule:evenodd;fill:#ffffff;fill-rule:nonzero;stroke-width:0.01087105;image-rendering:optimizeQuality;shape-rendering:geometricPrecision;text-rendering:geometricPrecision"
       sodipodi:nodetypes="cccccccccccccc" />
    <path
       style="clip-rule:evenodd;fill:#ffffff;fill-rule:evenodd;stroke-width:0.04108743;image-rendering:optimizeQuality;shape-rendering:geometricPrecision;text-rendering:geometricPrecision"
       d="m 50.416016,20.066406 -3.605469,6.220703 c 1.021552,1.520968 1.544922,3.418857 1.544922,5.712891 0,3.148445 -1.036486,5.622764 -3.109375,7.421875 -1.793695,1.554536 -4.318096,2.428433 -7.574219,2.625 l -8.457031,14.587891 7.355468,-0.04102 h 14.216797 v 10.845703 h 6.408203 V 56.59375 h 6 v -6.369141 h -6 V 33.953125 H 50.787109 V 50.224609 H 40.267578 L 55.921875,23.271484 Z m -12.744141,21.980469 1.289063,-2.222656 c -0.879553,0.236047 -1.85165,0.359375 -2.925782,0.359375 -0.547555,0 -0.968385,-0.05845 -1.261718,-0.175782 -0.273778,-0.136888 -0.410157,-0.448611 -0.410157,-0.9375 V 24.84375 c 0,-0.547556 0.06819,-0.870972 0.205078,-0.96875 0.156445,-0.117333 0.518827,-0.175781 1.085938,-0.175781 2.679111,0 4.810531,0.72281 6.394531,2.169922 1.287529,1.146214 2.04899,2.703179 2.302734,4.65625 l 2.458985,-4.238282 c -0.467558,-0.696138 -1.029381,-1.321275 -1.710938,-1.855468 -2.151111,-1.720889 -5.19238,-2.580079 -9.123047,-2.580079 h -7.919921 v 1.31836 c 1.701333,0 2.552734,0.459795 2.552734,1.378906 v 14.84375 c 0,0.919111 -0.851401,1.378906 -2.552734,1.378906 v 1.31836 h 8.154297 c 0.501967,0 0.989611,-0.01452 1.460937,-0.04297 z m 6.679687,-11.521484 -5.390624,9.298828 c 1.298223,-0.348407 2.389357,-0.94789 3.263671,-1.810547 1.486223,-1.466667 2.230469,-3.461708 2.230469,-5.984375 0,-0.527996 -0.04123,-1.024521 -0.103516,-1.503906 z M 8.2851562,21.851562 v 1.31836 c 1.6426667,0 2.4648438,0.459795 2.4648438,1.378906 v 14.84375 c 0,0.919111 -0.8221771,1.378906 -2.4648438,1.378906 v 1.31836 h 8.8007818 v -1.31836 c -1.720889,0 -2.582032,-0.459795 -2.582032,-1.378906 v -6.277344 l 1.085938,-0.0293 6.980468,9.003906 h 5.222657 v -1.259766 c -0.723556,-0.07822 -1.280764,-0.226295 -1.671875,-0.441406 -0.391111,-0.234667 -0.782717,-0.595096 -1.173828,-1.083984 L 19.548828,32.61523 c 1.466667,-0.293333 2.660967,-0.870024 3.580078,-1.730468 0.938667,-0.860445 1.408203,-2.023568 1.408203,-3.490235 0,-1.799111 -0.715022,-3.166802 -2.142578,-4.105469 -1.408,-0.958222 -3.412783,-1.4375 -6.013672,-1.4375 z m 7.4511718,1.847657 h 0.556641 c 1.290666,0 2.336894,0.311722 3.138672,0.9375 0.801777,0.606222 1.203125,1.545295 1.203125,2.816406 0,1.349333 -0.518243,2.307889 -1.554688,2.875 -1.016889,0.567111 -2.542394,0.900269 -4.576172,0.998047 v -6.572266 c 0,-0.488889 0.06819,-0.781128 0.205078,-0.878906 0.136889,-0.117333 0.479789,-0.175781 1.027344,-0.175781 z"
       transform="matrix(0.26458333,0,0,0.26458333,70.721387,43.621097)"
       id="polygon1124"
       inkscape:connector-curvature="0" />
    <text
       xml:space="preserve"
       style="font-style:normal;font-weight:normal;font-size:10.58333302px;line-height:1.25;font-family:sans-serif;letter-spacing:0px;word-spacing:0px;fill:#000000;fill-opacity:1;stroke:none;stroke-width:0.26458332"
       x="87.95726"
       y="63.272305"
       id="text978-6"><tspan
         sodipodi:role="line"
         id="tspan976-6"
         x="87.95726"
         y="63.272305"
         style="font-style:normal;font-variant:normal;font-weight:bold;font-stretch:normal;font-size:7.76111126px;font-family:Kinnari;-inkscape-font-specification:'Kinnari Bold';fill:#ffffff;stroke-width:0.26458332"
         transform="translate(6.879167)">S</tspan></text>
  </g>
  <g
     inkscape:groupmode="layer"
     id="layer2"
     inkscape:label="Capa 2"
     transform="translate(-45.541637,-3.7085273)"
     style="display:inline">
    <path
       class="fil4"
       d="m 63.361394,19.177431 c 0.851453,0.01306 1.609912,0.533076 1.728683,1.169267 0.09199,0.615257 -0.458941,1.108659 -1.270218,1.126996 -3.711869,0.306442 -7.906265,-0.710572 -10.97506,-2.365187 -3.121095,-1.677354 -5.093648,-4.028723 -6.08736,-6.924237 l -0.0319,-0.09738 -0.0038,-0.05734 v 0 c -0.10538,-0.625721 0.481909,-1.145065 1.321235,-1.123367 0.80043,0.0094 1.225186,0.62865 1.366913,1.228424 0.809238,2.226121 3.008912,4.019291 5.419424,5.322691 2.423906,1.313865 5.401913,1.991884 8.342701,1.735182 l 0.138386,-0.0187 z"
       id="path1118-9"
       inkscape:connector-curvature="0"
       style="clip-rule:evenodd;fill:#6ec4c4;fill-opacity:1;fill-rule:nonzero;stroke-width:0.01557709;image-rendering:optimizeQuality;shape-rendering:geometricPrecision;text-rendering:geometricPrecision"
       sodipodi:nodetypes="cccccccccccccc" />
    <path
       style="clip-rule:evenodd;fill:#6ec4c4;fill-opacity:1;fill-rule:evenodd;stroke-width:0.01087105;image-rendering:optimizeQuality;shape-rendering:geometricPrecision;text-rendering:geometricPrecision"
       d="m 57.440862,4.0052876 -0.953947,1.6458931 c 0.270285,0.4024227 0.40876,0.9045724 0.40876,1.5115351 0,0.8330254 -0.274237,1.4876891 -0.822689,1.9637038 -0.474581,0.4113037 -1.142496,0.6425227 -2.004012,0.6945307 l -2.237589,3.8597127 1.946134,-0.01085 h 3.761528 v 2.869589 h 1.695503 v -2.869591 h 1.5875 v -1.685169 h -1.5875 V 7.6794805 H 57.539047 V 11.984642 H 54.755754 L 58.89762,4.853297 Z"
       id="path853"
       inkscape:connector-curvature="0" />
    <path
       style="clip-rule:evenodd;fill:#ffffff;fill-rule:evenodd;stroke-width:0.01087105;image-rendering:optimizeQuality;shape-rendering:geometricPrecision;text-rendering:geometricPrecision"
       d="m 54.068974,9.8209503 0.341065,-0.5880777 c -0.232715,0.06245 -0.489916,0.09509 -0.774113,0.09509 -0.144874,0 -0.256219,-0.01547 -0.33383,-0.04651 -0.07244,-0.03622 -0.108521,-0.118695 -0.108521,-0.248047 V 5.2692927 c 0,-0.1448747 0.01804,-0.2304447 0.05426,-0.2563147 0.04139,-0.03104 0.137273,-0.04651 0.287321,-0.04651 0.708848,0 1.272786,0.191243 1.691886,0.5741247 0.340659,0.3032687 0.542129,0.7152157 0.609265,1.2319654 L 56.486915,5.6511797 C 56.363207,5.4669947 56.214558,5.3015937 56.034229,5.160255 55.465081,4.7049373 54.660412,4.4776103 53.620423,4.4776103 H 51.524944 V 4.826426 c 0.450144,0 0.67541,0.121654 0.67541,0.364835 v 3.9274066 c 0,0.243182 -0.225266,0.3648357 -0.67541,0.3648357 v 0.348816 h 2.157491 c 0.132812,0 0.261834,-0.0038 0.386539,-0.011369 z"
       id="path851"
       inkscape:connector-curvature="0" />
    <path
       style="clip-rule:evenodd;fill:#6ec4c4;fill-opacity:1;fill-rule:evenodd;stroke-width:0.01087105;image-rendering:optimizeQuality;shape-rendering:geometricPrecision;text-rendering:geometricPrecision"
       d="m 55.836308,6.7725591 -1.426269,2.4603135 c 0.343488,-0.09218 0.632184,-0.250796 0.863513,-0.4790397 0.39323,-0.3880557 0.590145,-0.9159104 0.590145,-1.5833651 0,-0.139699 -0.01091,-0.271071 -0.02739,-0.3979087 z"
       id="path849"
       inkscape:connector-curvature="0" />
    <text
       xml:space="preserve"
       style="font-style:normal;font-weight:normal;font-size:10.58333302px;line-height:1.25;font-family:sans-serif;letter-spacing:0px;word-spacing:0px;fill:#000000;fill-opacity:1;stroke:none;stroke-width:0.26458332"
       x="60.808338"
       y="18.347252"
       id="text978-6-0"><tspan
         sodipodi:role="line"
         id="tspan976-6-4"
         x="60.808338"
         y="18.347252"
         style="font-style:normal;font-variant:normal;font-weight:bold;font-stretch:normal;font-size:7.76111126px;font-family:Kinnari;-inkscape-font-specification:'Kinnari Bold';fill:#ffffff;stroke-width:0.26458332"
         transform="translate(6.879167)">S</tspan></text>
    <text
       xml:space="preserve"
       style="font-style:normal;font-variant:normal;font-weight:normal;font-stretch:normal;font-size:10.58333302px;line-height:1.25;font-family:'Signatra DEMO';-inkscape-font-specification:'Signatra DEMO';letter-spacing:0px;word-spacing:0px;fill:#000000;fill-opacity:1;stroke:none;stroke-width:0.26458332"
       x="46.16544"
       y="9.827178"
       id="text839"><tspan
         sodipodi:role="line"
         id="tspan837"
         x="46.16544"
         y="9.827178"
         style="font-style:normal;font-variant:normal;font-weight:bold;font-stretch:normal;font-size:7.76111126px;font-family:Kinnari;-inkscape-font-specification:'Kinnari Bold';fill:#ffffff;stroke-width:0.26458332">R</tspan></text>
  </g>
</svg>
