<?xml version="1.0" encoding="UTF-8" standalone="no"?>
<!--
  #%L
  STRep
  %%
  Copyright (C) 2019 - 2024 SING Group (University of Vigo)
  %%
  This program is free software: you can redistribute it and/or modify
  it under the terms of the GNU General Public License as
  published by the Free Software Foundation, either version 3 of the
  License, or (at your option) any later version.
  
  This program is distributed in the hope that it will be useful,
  but WITHOUT ANY WARRANTY; without even the implied warranty of
  MERCHANTABILITY or FITNESS FOR A PARTICULAR PURPOSE.  See the
  GNU General Public License for more details.
  
  You should have received a copy of the GNU General Public
  License along with this program.  If not, see
  <http://www.gnu.org/licenses/gpl-3.0.html>.
  #L%
  -->

<svg
   xmlns:dc="http://purl.org/dc/elements/1.1/"
   xmlns:cc="http://creativecommons.org/ns#"
   xmlns:rdf="http://www.w3.org/1999/02/22-rdf-syntax-ns#"
   xmlns:svg="http://www.w3.org/2000/svg"
   xmlns="http://www.w3.org/2000/svg"
   xmlns:sodipodi="http://sodipodi.sourceforge.net/DTD/sodipodi-0.dtd"
   xmlns:inkscape="http://www.inkscape.org/namespaces/inkscape"
   height="472pt"
   viewBox="-48 0 472 472.17"
   width="472pt"
   version="1.1"
   id="svg12"
   sodipodi:docname="permissions.svg"
   inkscape:version="0.92.4 (unknown)">
  <metadata
     id="metadata18">
    <rdf:RDF>
      <cc:Work
         rdf:about="">
        <dc:format>image/svg+xml</dc:format>
        <dc:type
           rdf:resource="http://purl.org/dc/dcmitype/StillImage" />
        <dc:title></dc:title>
      </cc:Work>
    </rdf:RDF>
  </metadata>
  <defs
     id="defs16" />
  <sodipodi:namedview
     pagecolor="#ffffff"
     bordercolor="#666666"
     borderopacity="1"
     objecttolerance="10"
     gridtolerance="10"
     guidetolerance="10"
     inkscape:pageopacity="0"
     inkscape:pageshadow="2"
     inkscape:window-width="1920"
     inkscape:window-height="1015"
     id="namedview14"
     showgrid="false"
     inkscape:zoom="0.375"
     inkscape:cx="337.33333"
     inkscape:cy="314.66667"
     inkscape:window-x="0"
     inkscape:window-y="0"
     inkscape:window-maximized="1"
     inkscape:current-layer="svg12" />
  <path
     d="m116.539062 129h.097657c35.625-.007812 64.492187-28.894531 64.484375-64.515625-.007813-35.625-28.894532-64.4921875-64.515625-64.484375h-.03125c-35.621094-.0117188-64.507813 28.859375-64.519531 64.480469-.007813 35.625 28.859374 64.507812 64.484374 64.519531zm0 0"
     id="path2"
     style="fill:#203939;fill-opacity:1" />
  <path
     d="m141.132812 361.652344c.058594-54.9375 35.90625-103.425782 88.410157-119.585938-12.324219-41.976562-50.75-70.871094-94.496094-71.066406h-36.785156c-54.382813.171875-98.3320315 44.386719-98.1757815 98.773438v108.226562h142.0820315c-.664063-5.425781-1.011719-10.882812-1.035157-16.347656zm0 0"
     id="path4"
     style="fill:#203939;fill-opacity:1" />
  <path
     d="m243.648438 414.050781-12.710938-12.707031-15.300781 15.300781 12.703125 12.597657zm0 0"
     id="path6"
     style="fill:#203939;fill-opacity:1" />
  <path
     d="m155.132812 361.457031c0 61.144531 49.570313 110.714844 110.714844 110.714844 61.144532 0 110.714844-49.570313 110.714844-110.714844 0-61.148437-49.570312-110.714843-110.714844-110.714843-61.117187.070312-110.644531 49.597656-110.714844 110.714843zm34.601563 61.292969 78.523437-78.523438c-12.222656-17.359374-9.132812-41.1875 7.113282-54.855468 16.246094-13.667969 40.25-12.632813 55.265625 2.378906 15.011719 15.011719 16.042969 39.015625 2.375 55.261719-13.667969 16.246093-37.492188 19.335937-54.855469 7.117187l-37.316406 37.316406 17.675781 17.675782c1.316406 1.316406 2.054687 3.101562 2.050781 4.960937-.003906 1.863281-.746094 3.644531-2.066406 4.957031l-25.222656 25.035157c-2.730469 2.707031-7.132813 2.707031-9.863282 0l-17.675781-17.53125-6.101562 6.101562c-2.730469 2.734375-7.164063 2.734375-9.898438 0s-2.734375-7.167969 0-9.902343zm0 0"
     id="path8"
     style="fill:#203939;fill-opacity:1" />
  <path
     d="m301.640625 347.585938c14.828125 0 26.847656-12.019532 26.847656-26.847657-.003906-14.824219-12.019531-26.84375-26.847656-26.84375-14.824219 0-26.84375 12.019531-26.84375 26.84375.015625 14.820313 12.027344 26.832031 26.84375 26.847657zm0 0"
     id="path10"
     style="fill:#203939;fill-opacity:1" />
</svg>
