<?xml version="1.0" encoding="UTF-8" standalone="no"?>
<svg
   xmlns:dc="http://purl.org/dc/elements/1.1/"
   xmlns:cc="http://creativecommons.org/ns#"
   xmlns:rdf="http://www.w3.org/1999/02/22-rdf-syntax-ns#"
   xmlns:svg="http://www.w3.org/2000/svg"
   xmlns="http://www.w3.org/2000/svg"
   xmlns:sodipodi="http://sodipodi.sourceforge.net/DTD/sodipodi-0.dtd"
   xmlns:inkscape="http://www.inkscape.org/namespaces/inkscape"
   height="511pt"
   viewBox="0 -22 511.997 511"
   width="511pt"
   version="1.1"
   id="svg885"
   sodipodi:docname="process.svg"
   inkscape:version="0.92.4 (unknown)">
  <metadata
     id="metadata891">
    <rdf:RDF>
      <cc:Work
         rdf:about="">
        <dc:format>image/svg+xml</dc:format>
        <dc:type
           rdf:resource="http://purl.org/dc/dcmitype/StillImage" />
        <dc:title></dc:title>
      </cc:Work>
    </rdf:RDF>
  </metadata>
  <defs
     id="defs889" />
  <sodipodi:namedview
     pagecolor="#ffffff"
     bordercolor="#666666"
     borderopacity="1"
     objecttolerance="10"
     gridtolerance="10"
     guidetolerance="10"
     inkscape:pageopacity="0"
     inkscape:pageshadow="2"
     inkscape:window-width="1920"
     inkscape:window-height="1015"
     id="namedview887"
     showgrid="false"
     inkscape:zoom="1.18591"
     inkscape:cx="340.66667"
     inkscape:cy="340.66667"
     inkscape:window-x="0"
     inkscape:window-y="0"
     inkscape:window-maximized="1"
     inkscape:current-layer="svg885" />
  <path
     d="m256 99.589844c-8.277344 0-15 6.722656-15 15s6.722656 15 15 15 15-6.722656 15-15-6.722656-15-15-15zm0 0"
     id="path873"
     style="fill:#6181b0;fill-opacity:1" />
  <path
     d="m283.40625 222.074219c3.640625 6.3125 11.710938 8.480469 18.023438 4.839843l29.121093-16.792968c3.03125-1.75 5.246094-4.636719 6.148438-8.015625.90625-3.382813.433593-6.984375-1.316407-10.019531l-10.945312-18.945313c9.953125-14.421875 8.9375-12.8125 16.550781-28.75h21.816407c7.285156 0 13.195312-5.710937 13.195312-13v-33.605469c0-7.289062-5.910156-13.195312-13.195312-13.195312h-21.816407c-7.472656-15.644532-6.386719-13.835938-16.550781-28.519532l10.949219-18.96875c1.75-3.027343 2.226562-6.632812 1.316406-10.011718-.902344-3.382813-3.117187-6.265625-6.148437-8.015625l-29.117188-16.804688c-6.308594-3.644531-14.378906-1.480469-18.023438 4.828125l-10.789062 18.679688c-17.183594-1.53125-15.410156-1.589844-33.253906 0l-10.789063-18.679688c-3.644531-6.3125-11.714843-8.472656-18.023437-4.828125l-29.113282 16.804688c-3.03125 1.75-5.242187 4.632812-6.148437 8.015625-.90625 3.378906-.429687 6.984375 1.320313 10.015625l10.945312 18.949219c-9.972656 14.445312-8.960938 12.636718-16.566406 28.535156h-21.800782c-7.289062 0-13.195312 5.910156-13.195312 13.195312v33.605469c0 7.289063 5.910156 13 13.195312 13h21.800782c7.457031 15.585937 6.425781 14.042969 16.550781 28.761719l-10.933594 18.9375c-1.75 3.03125-2.222656 6.632812-1.316406 10.015625.902344 3.378906 3.117187 6.261719 6.148437 8.011719l29.109376 16.804687c3.035156 1.75 6.636718 2.226563 10.015624 1.316406 3.382813-.90625 6.265626-3.117187 8.015626-6.152343l10.789062-18.695313c17.769531 1.605469 16.070312 1.554687 33.253906 0zm-27.40625-62.484375c-24.8125 0-45-20.1875-45-45s20.1875-45 45-45 45 20.1875 45 45-20.1875 45-45 45zm0 0"
     id="path875"
     style="fill:#6181b0;fill-opacity:1" />
  <path
     d="m391 339.589844c-8.277344 0-15 6.722656-15 15s6.722656 15 15 15 15-6.722656 15-15-6.722656-15-15-15zm0 0"
     id="path877"
     style="fill:#6181b0;fill-opacity:1" />
  <path
     d="m498.804688 324.589844h-22.816407c-7.472656-15.644532-6.386719-13.835938-16.550781-28.519532l10.949219-18.96875c1.75-3.027343 2.226562-6.632812 1.316406-10.011718-.902344-3.382813-3.117187-6.265625-6.148437-8.015625l-29.117188-16.804688c-6.308594-3.644531-14.378906-1.480469-18.023438 4.828125l-10.789062 18.679688c-17.183594-1.53125-15.410156-1.589844-33.253906 0l-10.789063-18.679688c-3.644531-6.3125-11.714843-8.472656-18.023437-4.828125l-29.113282 16.804688c-3.035156 1.75-5.246093 4.632812-6.152343 8.015625-.90625 3.378906-.429688 6.984375 1.320312 10.015625l10.945313 18.949219c-9.972656 14.445312-8.957032 12.636718-16.566406 28.535156h-21.800782c-7.285156 0-13.195312 5.910156-13.195312 13.195312v33.605469c0 7.289063 5.910156 13 13.195312 13h21.800782c7.457031 15.585937 6.425781 14.042969 16.554687 28.761719l-10.933594 18.933594c-1.75 3.035156-2.226562 6.636718-1.320312 10.019531.90625 3.378906 3.117187 6.261719 6.148437 8.011719l29.113282 16.804687c3.03125 1.75 6.632812 2.222656 10.015624 1.316406 3.378907-.90625 6.261719-3.121093 8.011719-6.152343l10.789063-18.699219c17.769531 1.609375 16.070312 1.554687 33.253906 0l10.777344 18.6875c3.644531 6.3125 11.710937 8.480469 18.027344 4.839843l29.117187-16.796874c3.035156-1.75 5.246094-4.632813 6.152344-8.011719.90625-3.382813.433593-6.988281-1.320313-10.019531l-10.945312-18.949219c9.957031-14.417969 8.941406-12.808594 16.554687-28.75h22.8125c7.289063 0 13.195313-5.707031 13.195313-12.996094v-33.605469c.003906-7.285156-5.90625-13.195312-13.191406-13.195312zm-107.804688 75c-24.8125 0-45-20.1875-45-45s20.1875-45 45-45 45 20.1875 45 45-20.1875 45-45 45zm0 0"
     id="path879"
     style="fill:#6181b0;fill-opacity:1" />
  <path
     d="m121 339.589844c-8.277344 0-15 6.722656-15 15s6.722656 15 15 15 15-6.722656 15-15-6.722656-15-15-15zm0 0"
     id="path881"
     style="fill:#6181b0;fill-opacity:1" />
  <path
     d="m227.804688 324.589844h-21.816407c-7.472656-15.644532-6.386719-13.835938-16.550781-28.519532l10.949219-18.96875c1.75-3.027343 2.226562-6.632812 1.316406-10.011718-.902344-3.382813-3.117187-6.265625-6.148437-8.015625l-29.117188-16.804688c-6.308594-3.644531-14.378906-1.480469-18.023438 4.828125l-10.789062 18.679688c-17.183594-1.53125-15.410156-1.589844-33.253906 0l-10.789063-18.679688c-3.644531-6.3125-11.714843-8.472656-18.023437-4.828125l-29.113282 16.804688c-3.03125 1.75-5.242187 4.632812-6.148437 8.015625-.90625 3.378906-.429687 6.984375 1.320313 10.015625l10.945312 18.949219c-9.972656 14.445312-8.960938 12.636718-16.566406 28.535156h-22.800782c-7.285156 0-13.195312 5.910156-13.195312 13.195312v33.605469c0 7.289063 5.910156 13 13.195312 13h22.800782c7.457031 15.585937 6.425781 14.042969 16.550781 28.761719l-10.933594 18.9375c-1.75 3.03125-2.222656 6.632812-1.316406 10.015625.902344 3.378906 3.117187 6.261719 6.148437 8.011719l29.109376 16.804687c3.035156 1.75 6.636718 2.226563 10.015624 1.316406 3.382813-.90625 6.265626-3.117187 8.015626-6.152343l10.789062-18.695313c17.769531 1.605469 16.070312 1.554687 33.253906 0l10.777344 18.683594c3.640625 6.3125 11.710938 8.480469 18.023438 4.839843l29.121093-16.792968c3.035157-1.75 5.246094-4.636719 6.152344-8.015625.90625-3.382813.429687-6.984375-1.320313-10.019531l-10.945312-18.945313c9.957031-14.421875 8.941406-12.8125 16.554688-28.75h21.8125c7.289062 0 13.195312-5.710937 13.195312-13v-33.605469c0-7.285156-5.910156-13.195312-13.195312-13.195312zm-106.804688 75c-24.8125 0-45-20.1875-45-45s20.1875-45 45-45 45 20.1875 45 45-20.1875 45-45 45zm0 0"
     id="path883"
     style="fill:#6181b0;fill-opacity:1" />
</svg>
