<?xml version="1.0" encoding="UTF-8" standalone="no"?>
<!--
  #%L
  STRep
  %%
  Copyright (C) 2019 - 2024 SING Group (University of Vigo)
  %%
  This program is free software: you can redistribute it and/or modify
  it under the terms of the GNU General Public License as
  published by the Free Software Foundation, either version 3 of the
  License, or (at your option) any later version.
  
  This program is distributed in the hope that it will be useful,
  but WITHOUT ANY WARRANTY; without even the implied warranty of
  MERCHANTABILITY or FITNESS FOR A PARTICULAR PURPOSE.  See the
  GNU General Public License for more details.
  
  You should have received a copy of the GNU General Public
  License along with this program.  If not, see
  <http://www.gnu.org/licenses/gpl-3.0.html>.
  #L%
  -->

<!-- Generator: Adobe Illustrator 17.1.0, SVG Export Plug-In . SVG Version: 6.00 Build 0)  -->

<svg
   xmlns:dc="http://purl.org/dc/elements/1.1/"
   xmlns:cc="http://creativecommons.org/ns#"
   xmlns:rdf="http://www.w3.org/1999/02/22-rdf-syntax-ns#"
   xmlns:svg="http://www.w3.org/2000/svg"
   xmlns="http://www.w3.org/2000/svg"
   xmlns:sodipodi="http://sodipodi.sourceforge.net/DTD/sodipodi-0.dtd"
   xmlns:inkscape="http://www.inkscape.org/namespaces/inkscape"
   version="1.1"
   id="Capa_1"
   x="0px"
   y="0px"
   viewBox="0 0 226.834 226.834"
   style="enable-background:new 0 0 226.834 226.834;"
   xml:space="preserve"
   sodipodi:docname="request.svg"
   inkscape:version="0.92.4 (unknown)"><metadata
   id="metadata39"><rdf:RDF><cc:Work
       rdf:about=""><dc:format>image/svg+xml</dc:format><dc:type
         rdf:resource="http://purl.org/dc/dcmitype/StillImage" /><dc:title></dc:title></cc:Work></rdf:RDF></metadata><defs
   id="defs37" /><sodipodi:namedview
   pagecolor="#ffffff"
   bordercolor="#666666"
   borderopacity="1"
   objecttolerance="10"
   gridtolerance="10"
   guidetolerance="10"
   inkscape:pageopacity="0"
   inkscape:pageshadow="2"
   inkscape:window-width="1920"
   inkscape:window-height="1015"
   id="namedview35"
   showgrid="false"
   inkscape:zoom="1.0404084"
   inkscape:cx="121.58687"
   inkscape:cy="113.417"
   inkscape:window-x="0"
   inkscape:window-y="0"
   inkscape:window-maximized="1"
   inkscape:current-layer="Capa_1" />
<path
   d="M80.197,44.939v-9.746c0-1.761,1.433-3.193,3.193-3.193h60.053c1.761,0,3.193,1.433,3.193,3.193v9.746  c0,1.761-1.433,3.193-3.193,3.193H83.391C81.63,48.133,80.197,46.7,80.197,44.939z M131.841,17c-0.768-9.5-8.729-17-18.424-17  S95.761,7.5,94.993,17H131.841z M192.309,55.334v151.333c0,11.12-9.047,20.167-20.167,20.167H54.692  c-11.12,0-20.167-9.047-20.167-20.167V55.334c0-11.12,9.047-20.167,20.167-20.167h10.506c0,0.009-0.001,0.018-0.001,0.026v9.746  c0,10.032,8.162,18.193,18.193,18.193h60.053c10.032,0,18.193-8.161,18.193-18.193v-9.746c0-0.009-0.001-0.018-0.001-0.026h10.506  C183.262,35.167,192.309,44.214,192.309,55.334z M88.183,143.449c-3.526-2.173-8.147-1.077-10.32,2.449l-7.092,11.504l-3.661-2.884  c-3.252-2.563-7.97-2.002-10.532,1.252c-2.563,3.255-2.002,7.97,1.252,10.533l10.271,8.089c1.332,1.049,2.969,1.607,4.64,1.607  c0.436,0,0.875-0.038,1.311-0.115c2.105-0.374,3.952-1.629,5.074-3.449l11.506-18.666C92.806,150.243,91.709,145.623,88.183,143.449  z M88.183,89.449c-3.526-2.174-8.147-1.076-10.32,2.449l-7.092,11.504l-3.661-2.884c-3.252-2.562-7.97-2.002-10.532,1.252  c-2.563,3.255-2.002,7.97,1.252,10.533l10.271,8.089c1.332,1.049,2.969,1.607,4.64,1.607c0.436,0,0.875-0.038,1.311-0.115  c2.105-0.374,3.952-1.629,5.074-3.449L90.632,99.77C92.806,96.243,91.709,91.623,88.183,89.449z M165.858,168.5  c0-4.143-3.357-7.5-7.5-7.5h-49c-4.142,0-7.5,3.357-7.5,7.5s3.358,7.5,7.5,7.5h49C162.501,176,165.858,172.643,165.858,168.5z   M165.858,114.5c0-4.143-3.357-7.5-7.5-7.5h-49c-4.142,0-7.5,3.357-7.5,7.5s3.358,7.5,7.5,7.5h49  C162.501,122,165.858,118.643,165.858,114.5z"
   id="path2"
   style="fill:#203939;fill-opacity:1" />
<g
   id="g4">
</g>
<g
   id="g6">
</g>
<g
   id="g8">
</g>
<g
   id="g10">
</g>
<g
   id="g12">
</g>
<g
   id="g14">
</g>
<g
   id="g16">
</g>
<g
   id="g18">
</g>
<g
   id="g20">
</g>
<g
   id="g22">
</g>
<g
   id="g24">
</g>
<g
   id="g26">
</g>
<g
   id="g28">
</g>
<g
   id="g30">
</g>
<g
   id="g32">
</g>
</svg>
