<?xml version="1.0" encoding="UTF-8" standalone="no"?>
<!-- Generator: Adobe Illustrator 16.0.0, SVG Export Plug-In . SVG Version: 6.00 Build 0)  -->

<svg
   xmlns:dc="http://purl.org/dc/elements/1.1/"
   xmlns:cc="http://creativecommons.org/ns#"
   xmlns:rdf="http://www.w3.org/1999/02/22-rdf-syntax-ns#"
   xmlns:svg="http://www.w3.org/2000/svg"
   xmlns="http://www.w3.org/2000/svg"
   xmlns:sodipodi="http://sodipodi.sourceforge.net/DTD/sodipodi-0.dtd"
   xmlns:inkscape="http://www.inkscape.org/namespaces/inkscape"
   version="1.1"
   id="Capa_1"
   x="0px"
   y="0px"
   width="438.543px"
   height="438.543px"
   viewBox="0 0 438.543 438.543"
   style="enable-background:new 0 0 438.543 438.543;"
   xml:space="preserve"
   sodipodi:docname="shield.svg"
   inkscape:version="0.92.4 (unknown)"><metadata
   id="metadata41"><rdf:RDF><cc:Work
       rdf:about=""><dc:format>image/svg+xml</dc:format><dc:type
         rdf:resource="http://purl.org/dc/dcmitype/StillImage" /></cc:Work></rdf:RDF></metadata><defs
   id="defs39" /><sodipodi:namedview
   pagecolor="#ffffff"
   bordercolor="#666666"
   borderopacity="1"
   objecttolerance="10"
   gridtolerance="10"
   guidetolerance="10"
   inkscape:pageopacity="0"
   inkscape:pageshadow="2"
   inkscape:window-width="1920"
   inkscape:window-height="1015"
   id="namedview37"
   showgrid="false"
   inkscape:zoom="0.53814563"
   inkscape:cx="201.61829"
   inkscape:cy="219.2715"
   inkscape:window-x="0"
   inkscape:window-y="0"
   inkscape:window-maximized="1"
   inkscape:current-layer="Capa_1" />
<g
   id="g4"
   style="fill:#203939;fill-opacity:1">
	<path
   d="M396.58,5.424C392.959,1.807,388.675,0,383.727,0H54.824c-4.952,0-9.235,1.807-12.852,5.424   c-3.615,3.615-5.424,7.898-5.424,12.847v219.268c0,16.371,3.186,32.596,9.563,48.681c6.374,16.084,14.274,30.361,23.697,42.828   c9.423,12.47,20.651,24.605,33.689,36.405c13.04,11.806,25.078,21.6,36.116,29.409c11.038,7.803,22.554,15.181,34.545,22.121   c11.991,6.943,20.511,11.663,25.553,14.134c5.043,2.478,9.088,4.38,12.132,5.708c2.286,1.143,4.758,1.718,7.426,1.718   c2.671,0,5.14-0.575,7.428-1.718c3.042-1.328,7.087-3.23,12.128-5.708c5.041-2.471,13.565-7.19,25.557-14.134   c11.984-6.94,23.504-14.318,34.54-22.121c11.043-7.81,23.079-17.604,36.121-29.409c13.031-11.8,24.263-23.936,33.685-36.405   c9.421-12.467,17.319-26.744,23.705-42.828c6.379-16.085,9.562-32.31,9.562-48.681V18.271   C401.994,13.319,400.187,9.04,396.58,5.424z M347.178,237.539c0,33.5-22.367,67.759-67.095,102.781   c-17.892,14.082-38.164,27.124-60.813,39.115V54.813h127.908V237.539z"
   id="path2"
   style="fill:#203939;fill-opacity:1" />
</g>
<g
   id="g6">
</g>
<g
   id="g8">
</g>
<g
   id="g10">
</g>
<g
   id="g12">
</g>
<g
   id="g14">
</g>
<g
   id="g16">
</g>
<g
   id="g18">
</g>
<g
   id="g20">
</g>
<g
   id="g22">
</g>
<g
   id="g24">
</g>
<g
   id="g26">
</g>
<g
   id="g28">
</g>
<g
   id="g30">
</g>
<g
   id="g32">
</g>
<g
   id="g34">
</g>
</svg>