<?xml version="1.0" encoding="UTF-8" standalone="no"?>
<!--
  #%L
  STRep
  %%
  Copyright (C) 2019 - 2024 SING Group (University of Vigo)
  %%
  This program is free software: you can redistribute it and/or modify
  it under the terms of the GNU General Public License as
  published by the Free Software Foundation, either version 3 of the
  License, or (at your option) any later version.
  
  This program is distributed in the hope that it will be useful,
  but WITHOUT ANY WARRANTY; without even the implied warranty of
  MERCHANTABILITY or FITNESS FOR A PARTICULAR PURPOSE.  See the
  GNU General Public License for more details.
  
  You should have received a copy of the GNU General Public
  License along with this program.  If not, see
  <http://www.gnu.org/licenses/gpl-3.0.html>.
  #L%
  -->

<!-- Generator: Adobe Illustrator 16.0.0, SVG Export Plug-In . SVG Version: 6.00 Build 0)  -->

<svg
   xmlns:dc="http://purl.org/dc/elements/1.1/"
   xmlns:cc="http://creativecommons.org/ns#"
   xmlns:rdf="http://www.w3.org/1999/02/22-rdf-syntax-ns#"
   xmlns:svg="http://www.w3.org/2000/svg"
   xmlns="http://www.w3.org/2000/svg"
   xmlns:sodipodi="http://sodipodi.sourceforge.net/DTD/sodipodi-0.dtd"
   xmlns:inkscape="http://www.inkscape.org/namespaces/inkscape"
   version="1.1"
   id="Capa_1"
   x="0px"
   y="0px"
   width="512px"
   height="512px"
   viewBox="0 0 510 510"
   style="enable-background:new 0 0 510 510;"
   xml:space="preserve"
   sodipodi:docname="tiposarchivos.svg"
   inkscape:version="0.92.4 (unknown)"><metadata
   id="metadata3878"><rdf:RDF><cc:Work
       rdf:about=""><dc:format>image/svg+xml</dc:format><dc:type
         rdf:resource="http://purl.org/dc/dcmitype/StillImage" /><dc:title></dc:title></cc:Work></rdf:RDF></metadata><defs
   id="defs3876" /><sodipodi:namedview
   pagecolor="#ffffff"
   bordercolor="#666666"
   borderopacity="1"
   objecttolerance="10"
   gridtolerance="10"
   guidetolerance="10"
   inkscape:pageopacity="0"
   inkscape:pageshadow="2"
   inkscape:window-width="1920"
   inkscape:window-height="1051"
   id="namedview3874"
   showgrid="false"
   inkscape:zoom="1.6484375"
   inkscape:cx="256"
   inkscape:cy="256"
   inkscape:window-x="0"
   inkscape:window-y="0"
   inkscape:window-maximized="1"
   inkscape:current-layer="Capa_1" />
<g
   id="g3841"
   transform="matrix(0.32345972,0,0,0.29206161,42.298577,53.02429)">
	<g
   id="gmail">
		<path
   d="M 459,51 H 51 C 22.95,51 0,73.95 0,102 v 306 c 0,28.05 22.95,51 51,51 h 408 c 28.05,0 51,-22.95 51,-51 V 102 C 510,73.95 487.05,51 459,51 Z m 0,357 H 408 V 183.6 L 255,280.5 102,183.6 V 408 H 51 V 102 H 81.6 L 255,209.1 428.4,102 H 459 Z"
   id="path3838"
   inkscape:connector-curvature="0"
   style="fill:#203939" />
	</g>
</g>
<g
   id="g3843">
</g>
<g
   id="g3845">
</g>
<g
   id="g3847">
</g>
<g
   id="g3849">
</g>
<g
   id="g3851">
</g>
<g
   id="g3853">
</g>
<g
   id="g3855">
</g>
<g
   id="g3857">
</g>
<g
   id="g3859">
</g>
<g
   id="g3861">
</g>
<g
   id="g3863">
</g>
<g
   id="g3865">
</g>
<g
   id="g3867">
</g>
<g
   id="g3869">
</g>
<g
   id="g3871">
</g>
<path
   inkscape:connector-curvature="0"
   style="fill:#76a9ea;stroke-width:0.40060216"
   d="m 460.06576,82.205788 c -3.96215,1.491565 -8.07518,2.668295 -12.29561,3.520205 4.65043,-3.751641 8.14693,-8.444131 10.11954,-13.681805 v 0 c 0.56304,-1.495264 -1.34999,-2.788254 -2.94042,-1.987658 v 0 c -5.8713,2.956571 -12.19562,5.174553 -18.79776,6.593043 -0.38306,0.08234 -0.77827,0.124026 -1.17478,0.124026 -1.20262,0 -2.37174,-0.379079 -3.2913,-1.0671 -7.02432,-5.255763 -16.05864,-8.150324 -25.43818,-8.150324 -4.05867,0 -8.15649,0.537054 -12.17995,1.596405 -12.46604,3.282491 -22.08471,12.012318 -25.10253,22.782953 -1.13217,4.03991 -1.43869,8.083507 -0.91174,12.018217 0.0605,0.45216 -0.19129,0.76775 -0.34651,0.91576 -0.2726,0.25948 -0.65914,0.40823 -1.06044,0.40823 -0.0448,0 -0.0909,-0.002 -0.13651,-0.005 -27.28774,-2.1523 -51.89461,-13.313077 -69.28803,-31.426047 v 0 c -0.88694,-0.923882 -2.58781,-0.810566 -3.29477,0.218882 v 0 c -3.40607,4.960838 -5.20606,10.634808 -5.20606,16.408418 0,8.84831 4.18738,17.186867 11.46083,23.265747 -3.05869,-0.61568 -6.01911,-1.58533 -8.76911,-2.88201 v 0 c -1.33042,-0.62749 -2.96737,0.17901 -2.98607,1.4709 v 0 c -0.19044,13.14475 8.87475,24.8411 22.4547,30.10793 -0.27347,0.005 -0.54696,0.008 -0.82086,0.008 -2.1526,0 -4.33217,-0.17643 -6.47737,-0.52449 v 0 c -1.49825,-0.24288 -2.75695,0.96373 -2.29174,2.19693 v 0 c 4.40781,11.68271 16.25647,20.29404 30.43556,22.24922 -11.76779,6.70636 -25.47165,10.24391 -39.73465,10.24391 l -4.44651,-0.002 c -1.36999,0 -2.52869,0.75815 -2.87781,1.88469 -0.34391,1.10953 0.28956,2.27999 1.45781,2.85691 16.07213,7.94066 34.40467,12.13744 53.02374,12.13744 16.29777,0 31.54293,-2.7458 45.31244,-8.16066 12.62302,-4.96415 23.77776,-12.0603 33.15424,-21.09131 8.73475,-8.41276 15.56517,-18.12442 20.30081,-28.86477 4.51432,-10.23801 6.9004,-21.16219 6.9004,-31.59177 v -0.49736 c -4.3e-4,-1.67465 0.89173,-3.25038 2.44826,-4.323017 5.90649,-4.07128 11.04996,-8.8638 15.28691,-14.24432 v 0 c 1.11869,-1.4207 -0.64565,-3.201294 -2.48653,-2.508107 z"
   id="path3983" /><path
   inkscape:connector-curvature="0"
   style="fill:#ffffff;fill-rule:evenodd;stroke-width:0.36080524"
   d="m 144.07111,337.49487 -25.51488,-12.07268 v 24.14535 l 0.002,24.14536 25.51327,-12.07268 25.51649,-12.07268 z m 0,0"
   id="path4296" /><path
   inkscape:connector-curvature="0"
   style="fill:#ff0000;fill-rule:evenodd;stroke-width:0.36080524"
   d="m 118.55623,325.42219 25.51488,12.07268 25.51649,12.07267 -25.51649,12.07268 -25.51327,12.07268 -0.002,-24.14536 z M 37.924186,377.0086 c 2.161271,15.82596 10.458478,22.13981 27.249367,24.14534 31.63471,3.77673 113.563197,3.77673 145.199527,0 16.78928,-2.00553 25.0865,-8.31815 27.24775,-24.14534 2.11457,-15.47075 2.11457,-39.41136 0,-54.8821 -2.16125,-15.82597 -10.45847,-22.13982 -27.24775,-24.14535 -31.63633,-3.77673 -113.564817,-3.77673 -145.199527,0 -16.790889,2.00553 -25.088096,8.31938 -27.249367,24.14535 -2.112954,15.47074 -2.112954,39.41135 0,54.8821 z m 0,0"
   id="path4298" /><path
   style="stroke-width:0.36080524"
   inkscape:connector-curvature="0"
   d="m 168.21869,400.44967 c -9.68544,0.25162 -19.92812,0.37865 -30.44617,0.37865 -30.40431,0 -57.305817,-1.0447 -71.964434,-2.79492 -15.66194,-1.86985 -21.884851,-7.45846 -23.783609,-21.35413 -2.075915,-15.20309 -2.075915,-39.02158 0,-54.22467 1.898758,-13.89568 8.121669,-19.48306 23.783609,-21.35292 2.54295,-0.30465 5.530395,-0.59327 8.881812,-0.85968 2.265945,-0.18008 3.911864,-1.73172 3.67674,-3.46714 -0.235141,-1.73418 -2.264342,-2.99597 -4.527072,-2.81466 -3.491527,0.27752 -6.620701,0.58094 -9.302149,0.9004 -9.769184,1.16681 -16.616962,3.67928 -21.54826,7.90619 -5.07463,4.34657 -7.986385,10.39401 -9.166873,19.03163 -2.125835,15.57188 -2.125835,39.96638 0,55.53826 1.180488,8.63761 4.092243,14.68382 9.166873,19.03161 4.931298,4.22692 11.779076,6.73939 21.54826,7.90496 15.053184,1.79832 42.431393,2.8714 73.235103,2.8714 10.60986,0 20.94754,-0.12828 30.72479,-0.38236 2.27561,-0.0592 4.05842,-1.51957 3.98111,-3.26238 -0.0773,-1.74283 -1.97446,-3.10822 -4.25973,-3.05024 z m 0,0"
   id="path4300" /><path
   style="stroke-width:0.36080524"
   inkscape:connector-curvature="0"
   d="m 241.72274,321.79842 c -1.18049,-8.63639 -4.09224,-14.68383 -9.16527,-19.03163 -4.9329,-4.22691 -11.78067,-6.73938 -21.54987,-7.90496 -15.05478,-1.79832 -42.43299,-2.87139 -73.23508,-2.87139 -10.60986,0 -20.94595,0.12952 -30.72319,0.38235 -2.27722,0.0592 -4.06003,1.51958 -3.98273,3.26239 0.0773,1.74406 1.97607,3.11191 4.26134,3.05024 9.68384,-0.25162 19.92812,-0.37866 30.44619,-0.37866 30.40108,0 57.3042,1.04471 71.96442,2.79492 15.66033,1.87109 21.88485,7.45848 23.782,21.35415 2.07752,15.20308 2.07752,39.02158 0,54.22467 -1.89715,13.89567 -8.12167,19.48305 -23.782,21.35414 -2.54295,0.30342 -5.53201,0.59204 -8.88343,0.85845 -2.26433,0.18008 -3.91024,1.73172 -3.67511,3.46714 0.22063,1.62441 2.00988,2.83192 4.09545,2.83192 0.14333,0 0.28666,-0.006 0.43161,-0.0172 3.48991,-0.27752 6.61909,-0.57971 9.30053,-0.9004 9.7692,-1.16681 16.61697,-3.67804 21.54987,-7.90497 5.07303,-4.34778 7.98478,-10.39522 9.16527,-19.03161 2.12583,-15.57187 2.12583,-39.96762 0,-55.5395 z m 0,0"
   id="path4302" /><path
   style="stroke-width:0.36080524"
   inkscape:connector-curvature="0"
   d="m 171.7537,346.88116 -51.02976,-24.14659 c -1.27228,-0.60191 -2.86987,-0.62904 -4.17598,-0.0715 -1.3045,0.55751 -2.11457,1.61331 -2.11457,2.75793 v 48.29194 c 0,1.14462 0.81007,2.20041 2.11457,2.75791 0.62647,0.26642 1.31738,0.39964 2.00827,0.39964 0.75371,0 1.50419,-0.15788 2.16771,-0.47117 l 51.02976,-24.14538 c 1.21592,-0.57601 1.95674,-1.59234 1.95674,-2.68639 0,-1.09527 -0.74082,-2.1116 -1.95674,-2.68638 z m -49.07303,21.16912 V 331.0848 l 39.06066,18.48274 z m 0,0"
   id="path4304" /><path
   style="stroke-width:0.36080524"
   inkscape:connector-curvature="0"
   d="m 90.707755,299.26389 c 0.0918,0 0.185213,-0.002 0.278616,-0.006 2.272389,-0.11594 3.990784,-1.62071 3.839397,-3.36106 -0.151387,-1.74035 -2.119399,-3.05887 -4.388573,-2.9417 h -0.0032 c -2.272389,0.11594 -3.989157,1.62071 -3.837786,3.36106 0.144951,1.66881 1.958353,2.94787 4.111568,2.94787 z m 0,0"
   id="path4306" /><path
   style="stroke-width:0.36080524"
   inkscape:connector-curvature="0"
   d="m 184.56026,399.8786 c -2.27239,0.1147 -3.99239,1.61947 -3.841,3.35982 0.14494,1.66881 1.95835,2.94787 4.10995,2.94787 0.0934,0 0.18521,-0.002 0.27862,-0.006 h 0.003 c 2.27239,-0.11595 3.98917,-1.62071 3.83778,-3.36106 -0.15138,-1.74035 -2.11294,-3.05518 -4.38856,-2.94047 z m 0,0"
   id="path4308" /><path
   style="fill:#2196f3;stroke-width:0.3093178"
   d="M 430.51392,275.07 H 323.6093 c -10.71961,0 -19.4372,9.0427 -19.4372,20.16211 v 90.7295 c 0,11.11939 8.71759,20.1621 19.4372,20.1621 v 20.15203 c 0,1.95572 1.08849,3.72999 2.79896,4.56672 0.65115,0.31251 1.3606,0.47381 2.06034,0.47381 1.11765,0 2.22557,-0.39316 3.10996,-1.1694 l 27.80492,-24.02316 h 71.13044 c 10.71963,0 19.43721,-9.04271 19.43721,-20.1621 v -90.7295 c 0,-11.11941 -8.71758,-20.16211 -19.43721,-20.16211 z"
   id="path4471"
   inkscape:connector-curvature="0" /><g
   id="g4479"
   transform="matrix(0.30370631,0,0,0.31503296,301.74731,275.07)"><path
     style="fill:#fafafa"
     d="m 119.984,288 h -32 c -8.832,0 -16,-7.168 -16,-16 0,-8.832 7.168,-16 16,-16 h 32 c 8.832,0 16,-7.168 16,-16 0,-8.832 -7.168,-16 -16,-16 -26.464,0 -48,-21.536 -48,-48 0,-26.464 21.536,-48 48,-48 h 32 c 8.832,0 16,7.168 16,16 0,8.832 -7.168,16 -16,16 h -32 c -8.832,0 -16,7.168 -16,16 0,8.832 7.168,16 16,16 26.464,0 48,21.536 48,48 0,26.464 -21.536,48 -48,48 z"
     id="path4473"
     inkscape:connector-curvature="0" /><path
     style="fill:#fafafa"
     d="m 375.984,288 h -32 c -8.832,0 -16,-7.168 -16,-16 0,-8.832 7.168,-16 16,-16 h 32 c 8.8,0 16,-7.168 16,-16 0,-8.832 -7.2,-16 -16,-16 -26.464,0 -48,-21.536 -48,-48 0,-26.464 21.536,-48 48,-48 h 32 c 8.832,0 16,7.168 16,16 0,8.832 -7.168,16 -16,16 h -32 c -8.8,0 -16,7.168 -16,16 0,8.832 7.2,16 16,16 26.464,0 48,21.536 48,48 0,26.464 -21.536,48 -48,48 z"
     id="path4475"
     inkscape:connector-curvature="0" /><path
     style="fill:#fafafa"
     d="m 279.984,288 c -8.832,0 -16,-7.168 -16,-16 v -60.224 l -1.696,3.392 c -5.44,10.848 -23.2,10.848 -28.64,0 l -1.664,-3.392 V 272 c 0,8.832 -7.168,16 -16,16 -8.832,0 -16,-7.168 -16,-16 V 144 c 0,-7.424 5.12,-13.888 12.32,-15.584 7.136,-1.728 14.656,1.792 17.984,8.416 l 17.696,35.392 17.696,-35.36 c 3.296,-6.688 10.624,-10.144 17.984,-8.448 7.232,1.696 12.32,8.16 12.32,15.584 v 128 c 0,8.832 -7.168,16 -16,16 z"
     id="path4477"
     inkscape:connector-curvature="0" /></g></svg>
